<svg width="400" height="203" viewBox="0 0 400 203" fill="none" xmlns="http://www.w3.org/2000/svg">
<path d="M389.348 127.772V116.089H364.476V127.772H360.167V83.255H326.139V164.178H310.792V110.4H305.163V99.867H280.292V110.4H274.663V157.313H254.727V124.402H251.427V118.938H248.402V114.821H243.643V93.599H242.597V114.821H237.839V118.938H234.814V124.402H231.514V136.277H204.335V81.622H198.706V67.76H173.835V81.622H168.206V144.964H161.645V117.602H127.617V144.964H117.685V88.486H112.849V80.477H108.414V74.441H101.438V43.331H99.904V74.441H92.928V80.477H88.494V88.486H83.657V169.788H76.281V83.255H42.253V127.772H39.56V116.089H14.688V127.772H9.06V201.48H42.253H45.188H68.106H76.281H83.657H92.642H111.349H117.685H127.617H161.645H168.206H199.173H201.4H204.335H231.514H235.428H252.447H254.727H274.663H277.832H302.771H310.792H326.139H344.263H358.848H360.167H394.976V127.772H389.348Z" fill="#EBEBFC"/>
<path d="M398.977 202.719H1.02399C0.747987 202.719 0.523987 202.495 0.523987 202.219C0.523987 201.943 0.747987 201.719 1.02399 201.719H398.977C399.253 201.719 399.477 201.943 399.477 202.219C399.477 202.495 399.253 202.719 398.977 202.719Z" fill="#6F6AD3"/>
<path d="M208.251 14.173H183.876C182.045 14.173 180.561 12.689 180.561 10.858C180.561 9.02699 182.045 7.54299 183.876 7.54299H190.397C192.345 7.54299 194.047 6.07299 194.172 4.12799C194.31 1.99799 192.623 0.22699 190.522 0.22699H107.466C105.518 0.22699 103.817 1.69699 103.691 3.64199C103.553 5.77199 105.24 7.54399 107.341 7.54399H131.569C133.4 7.54399 134.884 9.02799 134.884 10.859C134.884 12.69 133.4 14.174 131.569 14.174H94.687C92.667 14.174 91.029 15.812 91.029 17.832C91.029 19.852 92.667 21.49 94.687 21.49H130.387C132.218 21.49 133.702 22.974 133.702 24.805C133.702 26.636 132.218 28.12 130.387 28.12H107.466C105.518 28.12 103.817 29.59 103.691 31.535C103.553 33.665 105.24 35.436 107.341 35.436H190.397C192.345 35.436 194.047 33.966 194.172 32.022C194.31 29.891 192.623 28.12 190.522 28.12H172.386C170.555 28.12 169.071 26.636 169.071 24.805C169.071 22.974 170.555 21.49 172.386 21.49H208.25C210.27 21.49 211.908 19.852 211.908 17.832C211.909 15.811 210.272 14.173 208.251 14.173Z" fill="#EBEBFC"/>
<path d="M252.071 98.683H146.708C144.125 98.683 142.03 100.777 142.03 103.361V177.718C142.03 180.301 144.124 182.396 146.708 182.396H178.309V196.984H174.529C173.073 196.984 171.893 198.164 171.893 199.62C171.893 201.076 173.073 202.256 174.529 202.256H223.565C225.021 202.256 226.201 201.076 226.201 199.62C226.201 198.164 225.021 196.984 223.565 196.984H220.471V182.396H252.072C254.656 182.396 256.75 180.302 256.75 177.718V103.361C256.749 100.777 254.655 98.683 252.071 98.683Z" fill="white"/>
<path d="M223.565 202.256H174.529C173.073 202.256 171.893 201.076 171.893 199.62C171.893 198.164 173.073 196.984 174.529 196.984H223.565C225.021 196.984 226.201 198.164 226.201 199.62C226.201 201.076 225.021 202.256 223.565 202.256Z" fill="#D3D3F4"/>
<path d="M220.47 182.968H199.389V196.984H220.47V182.968Z" fill="#D3D3F4"/>
<path d="M146.284 182.395H252.495C254.844 182.395 256.749 180.49 256.749 178.141V162.85H142.03V178.141C142.03 180.491 143.934 182.395 146.284 182.395ZM199.389 169.649C201.104 169.649 202.494 171.039 202.494 172.754C202.494 174.469 201.104 175.859 199.389 175.859C197.674 175.859 196.284 174.469 196.284 172.754C196.285 171.039 197.675 169.649 199.389 169.649Z" fill="#D3D3F4"/>
<path d="M250.669 182.896H148.11C144.482 182.896 141.53 179.944 141.53 176.316V104.764C141.53 101.136 144.482 98.184 148.11 98.184H250.669C254.297 98.184 257.249 101.136 257.249 104.764V176.316C257.249 179.943 254.297 182.896 250.669 182.896ZM148.11 99.183C145.033 99.183 142.53 101.686 142.53 104.763V176.315C142.53 179.392 145.033 181.895 148.11 181.895H250.669C253.746 181.895 256.249 179.392 256.249 176.315V104.763C256.249 101.686 253.746 99.183 250.669 99.183H148.11Z" fill="#6F6AD3"/>
<path d="M220.471 197.483H178.309C178.033 197.483 177.809 197.259 177.809 196.983V182.395C177.809 182.119 178.033 181.895 178.309 181.895H220.471C220.747 181.895 220.971 182.119 220.971 182.395V196.983C220.971 197.26 220.747 197.483 220.471 197.483ZM178.809 196.483H219.971V182.895H178.809V196.483Z" fill="#6F6AD3"/>
<path d="M223.565 202.756H174.528C172.799 202.756 171.392 201.35 171.392 199.62C171.392 197.891 172.799 196.483 174.528 196.483H223.565C225.294 196.483 226.701 197.89 226.701 199.62C226.701 201.35 225.295 202.756 223.565 202.756ZM174.529 197.483C173.351 197.483 172.393 198.442 172.393 199.62C172.393 200.798 173.351 201.756 174.529 201.756H223.566C224.744 201.756 225.702 200.798 225.702 199.62C225.702 198.442 224.744 197.483 223.566 197.483H174.529Z" fill="#6F6AD3"/>
<path d="M199.389 169.649C201.104 169.649 202.494 171.039 202.494 172.754C202.494 174.469 201.104 175.859 199.389 175.859C197.674 175.859 196.284 174.469 196.284 172.754C196.285 171.039 197.675 169.649 199.389 169.649Z" fill="#FFC74A"/>
<path d="M199.39 176.359C197.402 176.359 195.785 174.742 195.785 172.754C195.785 170.766 197.402 169.149 199.39 169.149C201.377 169.149 202.995 170.766 202.995 172.754C202.994 174.742 201.377 176.359 199.39 176.359ZM199.39 170.149C197.954 170.149 196.785 171.318 196.785 172.754C196.785 174.19 197.953 175.359 199.39 175.359C200.826 175.359 201.995 174.19 201.995 172.754C201.994 171.317 200.826 170.149 199.39 170.149Z" fill="#6F6AD3"/>
<path d="M199.39 197.2C199.114 197.2 198.89 196.976 198.89 196.7V182.968C198.89 182.692 199.114 182.468 199.39 182.468C199.666 182.468 199.89 182.692 199.89 182.968V196.7C199.89 196.977 199.666 197.2 199.39 197.2Z" fill="#6F6AD3"/>
<path d="M250.906 182.896H147.873C144.375 182.896 141.53 180.05 141.53 176.553V162.85C141.53 162.574 141.754 162.35 142.03 162.35H256.749C257.025 162.35 257.249 162.574 257.249 162.85V176.552C257.249 180.05 254.403 182.896 250.906 182.896ZM142.53 163.35V176.552C142.53 179.498 144.927 181.895 147.873 181.895H250.906C253.852 181.895 256.249 179.498 256.249 176.552V163.35H142.53ZM199.39 176.359C197.402 176.359 195.785 174.742 195.785 172.754C195.785 170.766 197.402 169.149 199.39 169.149C201.377 169.149 202.995 170.766 202.995 172.754C202.994 174.742 201.377 176.359 199.39 176.359ZM199.39 170.149C197.954 170.149 196.785 171.318 196.785 172.754C196.785 174.19 197.953 175.359 199.39 175.359C200.826 175.359 201.995 174.19 201.995 172.754C201.994 171.317 200.826 170.149 199.39 170.149Z" fill="#6F6AD3"/>
<path d="M223.565 200.469H178.798C178.522 200.469 178.298 200.245 178.298 199.969C178.298 199.693 178.522 199.469 178.798 199.469H223.565C223.841 199.469 224.065 199.693 224.065 199.969C224.065 200.245 223.842 200.469 223.565 200.469Z" fill="#6F6AD3"/>
<path d="M146.736 145.112C146.46 145.112 146.236 144.888 146.236 144.612V108.39C146.236 108.114 146.46 107.89 146.736 107.89C147.012 107.89 147.236 108.114 147.236 108.39V144.612C147.236 144.888 147.013 145.112 146.736 145.112Z" fill="#6F6AD3"/>
<path d="M146.736 155.142C146.46 155.142 146.236 154.918 146.236 154.642V147.528C146.236 147.252 146.46 147.028 146.736 147.028C147.012 147.028 147.236 147.252 147.236 147.528V154.642C147.236 154.919 147.013 155.142 146.736 155.142Z" fill="#6F6AD3"/>
<path d="M106.712 101.723H85.0829V76.39C85.0829 74.184 86.878 72.389 89.084 72.389H106.712V101.723Z" fill="white"/>
<path d="M89.0839 71.987C86.6519 71.987 84.6809 73.959 84.6809 76.39V112.752C84.6809 114.914 86.4339 116.667 88.5959 116.667H113.039V71.986H89.0839V71.987ZM106.712 101.723H85.0829V76.39C85.0829 74.184 86.8779 72.389 89.0839 72.389H106.712V101.723Z" fill="#D3D3F4"/>
<path d="M106.712 98.21H84.6799V101.723H106.712V98.21Z" fill="#FFC866"/>
<path d="M253.63 57.033H92.637L98.001 53.471H251.1L253.63 57.033Z" fill="#FFC866"/>
<path d="M129.11 202.759H113.226C112.95 202.759 112.726 202.535 112.726 202.259V57.487C112.726 57.211 112.95 56.987 113.226 56.987C113.502 56.987 113.726 57.211 113.726 57.487V201.759H128.61V57.487C128.61 57.211 128.834 56.987 129.11 56.987C129.386 56.987 129.61 57.211 129.61 57.487V202.259C129.61 202.535 129.386 202.759 129.11 202.759Z" fill="#6F6AD3"/>
<path d="M128.749 73.8529C128.619 73.8529 128.49 73.8029 128.392 73.7029L112.868 57.8369C112.675 57.6399 112.679 57.3229 112.876 57.1299C113.074 56.9379 113.39 56.9409 113.583 57.1379L129.107 73.0039C129.3 73.2009 129.296 73.5179 129.099 73.7109C129.002 73.8059 128.875 73.8529 128.749 73.8529Z" fill="#6F6AD3"/>
<path d="M113.226 73.853C113.1 73.853 112.973 73.806 112.876 73.71C112.679 73.517 112.675 73.2 112.868 73.003L128.392 57.137C128.586 56.94 128.903 56.937 129.099 57.129C129.296 57.322 129.3 57.639 129.107 57.836L113.583 73.702C113.485 73.803 113.355 73.853 113.226 73.853Z" fill="#6F6AD3"/>
<path d="M128.749 89.966C128.618 89.966 128.487 89.915 128.389 89.812L112.865 73.652C112.674 73.453 112.68 73.136 112.879 72.946C113.077 72.755 113.394 72.7601 113.585 72.9601L129.109 89.12C129.3 89.319 129.294 89.636 129.095 89.827C128.999 89.92 128.874 89.966 128.749 89.966Z" fill="#6F6AD3"/>
<path d="M113.226 89.966C113.101 89.966 112.976 89.92 112.88 89.826C112.681 89.635 112.674 89.318 112.866 89.119L128.39 72.959C128.581 72.759 128.898 72.753 129.096 72.945C129.295 73.136 129.302 73.453 129.11 73.651L113.586 89.811C113.488 89.915 113.357 89.966 113.226 89.966Z" fill="#6F6AD3"/>
<path d="M128.749 106.08C128.618 106.08 128.487 106.029 128.389 105.926L112.865 89.766C112.674 89.567 112.68 89.25 112.879 89.06C113.077 88.869 113.394 88.874 113.585 89.074L129.109 105.234C129.3 105.433 129.294 105.75 129.095 105.94C128.999 106.033 128.874 106.08 128.749 106.08Z" fill="#6F6AD3"/>
<path d="M113.226 106.08C113.101 106.08 112.976 106.034 112.88 105.94C112.681 105.749 112.674 105.432 112.866 105.234L128.39 89.074C128.581 88.874 128.898 88.868 129.096 89.06C129.295 89.251 129.302 89.568 129.11 89.766L113.586 105.926C113.488 106.028 113.357 106.08 113.226 106.08Z" fill="#6F6AD3"/>
<path d="M128.749 122.192C128.618 122.192 128.487 122.141 128.389 122.038L112.865 105.879C112.674 105.68 112.68 105.363 112.879 105.173C113.077 104.981 113.394 104.987 113.585 105.187L129.109 121.346C129.3 121.545 129.294 121.862 129.095 122.052C128.999 122.146 128.874 122.192 128.749 122.192Z" fill="#6F6AD3"/>
<path d="M113.226 122.192C113.101 122.192 112.976 122.146 112.88 122.052C112.681 121.861 112.674 121.544 112.866 121.346L128.39 105.187C128.581 104.987 128.898 104.981 129.096 105.173C129.295 105.364 129.302 105.681 129.11 105.879L113.586 122.038C113.488 122.141 113.357 122.192 113.226 122.192Z" fill="#6F6AD3"/>
<path d="M128.749 138.306C128.618 138.306 128.487 138.255 128.389 138.152L112.865 121.992C112.674 121.793 112.68 121.476 112.879 121.285C113.077 121.094 113.394 121.099 113.585 121.299L129.109 137.459C129.3 137.658 129.294 137.975 129.095 138.165C128.999 138.259 128.874 138.306 128.749 138.306Z" fill="#6F6AD3"/>
<path d="M113.226 138.306C113.101 138.306 112.976 138.26 112.88 138.166C112.681 137.975 112.674 137.658 112.866 137.46L128.39 121.3C128.581 121.1 128.898 121.094 129.096 121.286C129.295 121.477 129.302 121.794 129.11 121.993L113.586 138.153C113.488 138.254 113.357 138.306 113.226 138.306Z" fill="#6F6AD3"/>
<path d="M128.749 154.419C128.618 154.419 128.487 154.368 128.389 154.265L112.865 138.105C112.674 137.906 112.68 137.589 112.879 137.398C113.077 137.207 113.394 137.212 113.585 137.412L129.109 153.572C129.3 153.771 129.294 154.088 129.095 154.278C128.999 154.373 128.874 154.419 128.749 154.419Z" fill="#6F6AD3"/>
<path d="M113.226 154.419C113.101 154.419 112.976 154.373 112.88 154.279C112.681 154.088 112.674 153.771 112.866 153.573L128.39 137.413C128.581 137.213 128.898 137.207 129.096 137.399C129.295 137.59 129.302 137.907 129.11 138.106L113.586 154.266C113.488 154.368 113.357 154.419 113.226 154.419Z" fill="#6F6AD3"/>
<path d="M128.749 170.532C128.618 170.532 128.487 170.481 128.389 170.378L112.865 154.218C112.674 154.019 112.68 153.702 112.879 153.511C113.077 153.319 113.394 153.325 113.585 153.525L129.109 169.685C129.3 169.884 129.294 170.201 129.095 170.392C128.999 170.486 128.874 170.532 128.749 170.532Z" fill="#6F6AD3"/>
<path d="M113.226 170.532C113.101 170.532 112.976 170.486 112.88 170.392C112.681 170.201 112.674 169.884 112.866 169.685L128.39 153.525C128.581 153.325 128.898 153.319 129.096 153.511C129.295 153.702 129.302 154.019 129.11 154.218L113.586 170.378C113.488 170.481 113.357 170.532 113.226 170.532Z" fill="#6F6AD3"/>
<path d="M128.749 186.646C128.618 186.646 128.487 186.594 128.389 186.493L112.865 170.333C112.674 170.134 112.68 169.817 112.879 169.627C113.077 169.435 113.394 169.441 113.585 169.641L129.109 185.8C129.3 185.999 129.294 186.316 129.095 186.507C128.999 186.6 128.874 186.646 128.749 186.646Z" fill="#6F6AD3"/>
<path d="M113.226 186.646C113.101 186.646 112.976 186.6 112.88 186.506C112.681 186.315 112.674 185.998 112.866 185.799L128.39 169.64C128.581 169.44 128.898 169.434 129.096 169.626C129.295 169.817 129.302 170.134 129.11 170.332L113.586 186.492C113.488 186.594 113.357 186.646 113.226 186.646Z" fill="#6F6AD3"/>
<path d="M128.749 202.759C128.618 202.759 128.487 202.707 128.389 202.606L112.865 186.446C112.674 186.247 112.68 185.93 112.879 185.739C113.077 185.547 113.394 185.554 113.585 185.753L129.109 201.913C129.3 202.112 129.294 202.429 129.095 202.62C128.999 202.713 128.874 202.759 128.749 202.759Z" fill="#6F6AD3"/>
<path d="M113.226 202.759C113.101 202.759 112.976 202.713 112.88 202.619C112.681 202.428 112.674 202.111 112.866 201.912L128.39 185.752C128.581 185.554 128.898 185.546 129.096 185.738C129.295 185.929 129.302 186.246 129.11 186.445L113.586 202.605C113.488 202.707 113.357 202.759 113.226 202.759Z" fill="#6F6AD3"/>
<path d="M143.771 53.9C143.676 53.9 143.581 53.873 143.496 53.817L125.529 41.945L108.328 53.811C108.101 53.967 107.79 53.91 107.633 53.683C107.476 53.456 107.533 53.144 107.761 52.988L125.24 40.93C125.407 40.814 125.63 40.812 125.799 40.925L144.048 52.983C144.278 53.135 144.341 53.445 144.189 53.676C144.092 53.821 143.933 53.9 143.771 53.9Z" fill="#6F6AD3"/>
<path d="M253.63 57.751H92.6369C92.4209 57.751 92.2289 57.612 92.1609 57.406C92.0939 57.2 92.1669 56.975 92.3419 56.847L114.117 40.963C114.202 40.9 114.306 40.867 114.411 40.867H244.493C244.672 40.867 244.837 40.963 244.927 41.117L254.063 57.001C254.152 57.156 254.152 57.346 254.062 57.501C253.974 57.655 253.809 57.751 253.63 57.751ZM94.17 56.751H252.765L244.204 41.867H114.574L94.17 56.751Z" fill="#6F6AD3"/>
<path d="M251.101 53.9H98.001C97.725 53.9 97.501 53.676 97.501 53.4C97.501 53.124 97.725 52.9 98.001 52.9H251.101C251.377 52.9 251.601 53.124 251.601 53.4C251.601 53.676 251.377 53.9 251.101 53.9Z" fill="#6F6AD3"/>
<path d="M179.168 53.9C179.073 53.9 178.977 53.873 178.893 53.817L160.926 41.945L143.724 53.812C143.497 53.968 143.186 53.911 143.029 53.684C142.872 53.457 142.929 53.145 143.157 52.989L160.636 40.931C160.803 40.815 161.025 40.813 161.196 40.926L179.445 52.984C179.675 53.136 179.739 53.446 179.586 53.677C179.489 53.821 179.33 53.9 179.168 53.9Z" fill="#6F6AD3"/>
<path d="M214.565 53.9C214.47 53.9 214.375 53.873 214.29 53.817L196.322 41.945L179.12 53.812C178.893 53.968 178.581 53.911 178.425 53.684C178.268 53.457 178.325 53.145 178.553 52.989L196.033 40.931C196.2 40.815 196.422 40.813 196.593 40.926L214.841 52.984C215.071 53.136 215.135 53.446 214.983 53.677C214.887 53.821 214.728 53.9 214.565 53.9Z" fill="#6F6AD3"/>
<path d="M249.962 53.9C249.867 53.9 249.772 53.873 249.687 53.817L231.72 41.945L214.519 53.811C214.292 53.966 213.981 53.911 213.824 53.683C213.667 53.456 213.724 53.144 213.951 52.988L231.43 40.93C231.599 40.815 231.821 40.812 231.99 40.925L250.238 52.983C250.468 53.135 250.532 53.445 250.38 53.676C250.283 53.821 250.124 53.9 249.962 53.9Z" fill="#6F6AD3"/>
<path d="M251.618 87.644H235.861V91.2551H251.618V87.644Z" fill="#FFE49F"/>
<path d="M246.31 95.374H241.17C238.895 95.374 237.051 93.53 237.051 91.255H250.43C250.429 93.53 248.585 95.374 246.31 95.374Z" fill="#D3D3F4"/>
<path d="M250.113 87.621C250.058 84.146 247.228 81.344 243.74 81.344C240.252 81.344 237.422 84.145 237.367 87.621H250.113Z" fill="#D3D3F4"/>
<path d="M251.619 91.7551H235.861C235.585 91.7551 235.361 91.5311 235.361 91.2551V87.644C235.361 87.368 235.585 87.144 235.861 87.144H251.619C251.895 87.144 252.119 87.368 252.119 87.644V91.2551C252.119 91.5311 251.895 91.7551 251.619 91.7551ZM236.361 90.7551H251.119V88.144H236.361V90.7551Z" fill="#6F6AD3"/>
<path d="M246.31 95.874H241.169C238.622 95.874 236.55 93.802 236.55 91.255C236.55 90.979 236.774 90.755 237.05 90.755H250.429C250.705 90.755 250.929 90.979 250.929 91.255C250.93 93.802 248.857 95.874 246.31 95.874ZM237.585 91.755C237.829 93.515 239.344 94.874 241.17 94.874H246.311C248.137 94.874 249.652 93.515 249.896 91.755H237.585Z" fill="#6F6AD3"/>
<path d="M243.85 114.447C242.244 114.447 240.689 113.901 239.442 112.872C237.841 111.553 236.923 109.607 236.923 107.535C236.923 107.259 237.147 107.035 237.423 107.035C237.699 107.035 237.923 107.259 237.923 107.535C237.923 109.307 238.708 110.971 240.077 112.1C241.446 113.229 243.256 113.679 245.026 113.332C247.334 112.884 249.184 111.033 249.631 108.726C249.977 106.949 249.527 105.145 248.4 103.776C247.271 102.407 245.608 101.622 243.836 101.622C243.56 101.622 243.336 101.398 243.336 101.122V95.535C243.336 95.259 243.56 95.035 243.836 95.035C244.112 95.035 244.336 95.259 244.336 95.535V100.64C246.219 100.775 247.959 101.669 249.172 103.14C250.491 104.74 251.017 106.846 250.614 108.916C250.089 111.619 247.921 113.788 245.218 114.313C244.762 114.404 244.304 114.447 243.85 114.447Z" fill="#6F6AD3"/>
<path d="M250.113 88.121H237.367C237.233 88.121 237.104 88.067 237.01 87.972C236.916 87.877 236.865 87.747 236.867 87.614C236.926 83.882 240.009 80.845 243.74 80.845C247.471 80.845 250.554 83.882 250.613 87.614C250.615 87.748 250.563 87.877 250.469 87.972C250.376 88.067 250.247 88.121 250.113 88.121ZM237.897 87.121H249.583C249.279 84.168 246.758 81.844 243.74 81.844C240.723 81.844 238.201 84.169 237.897 87.121Z" fill="#6F6AD3"/>
<path d="M243.74 81.844C243.464 81.844 243.24 81.62 243.24 81.344V57.553C243.24 57.277 243.464 57.053 243.74 57.053C244.016 57.053 244.24 57.277 244.24 57.553V81.344C244.24 81.621 244.017 81.844 243.74 81.844Z" fill="#6F6AD3"/>
<path d="M105.79 202.669H102.491C102.215 202.669 101.991 202.445 101.991 202.169V116.715C101.991 116.439 102.215 116.215 102.491 116.215H105.79C106.066 116.215 106.29 116.439 106.29 116.715V202.169C106.29 202.445 106.067 202.669 105.79 202.669ZM102.991 201.669H105.29V117.215H102.991V201.669Z" fill="#6F6AD3"/>
<path d="M105.79 72.487H102.491C102.215 72.487 101.991 72.263 101.991 71.987V57.251C101.991 56.975 102.215 56.751 102.491 56.751H105.79C106.066 56.751 106.29 56.975 106.29 57.251V71.987C106.29 72.263 106.067 72.487 105.79 72.487ZM102.991 71.487H105.29V57.751H102.991V71.487Z" fill="#6F6AD3"/>
<path d="M113.039 117.168H89.539C86.585 117.168 84.182 114.765 84.182 111.81V77.45C84.182 74.162 86.857 71.487 90.145 71.487H113.04C113.316 71.487 113.54 71.711 113.54 71.987V116.668C113.539 116.944 113.315 117.168 113.039 117.168ZM90.144 72.487C87.408 72.487 85.181 74.714 85.181 77.45V111.81C85.181 114.213 87.136 116.168 89.538 116.168H112.538V72.487H90.144Z" fill="#6F6AD3"/>
<path d="M107.115 102.626H84.681C84.405 102.626 84.181 102.402 84.181 102.126V77.45C84.181 74.162 86.856 71.487 90.144 71.487H107.116C107.392 71.487 107.616 71.711 107.616 71.987V102.126C107.615 102.402 107.392 102.626 107.115 102.626ZM85.181 101.626H106.615V72.487H90.143C87.407 72.487 85.18 74.714 85.18 77.45V101.626H85.181Z" fill="#6F6AD3"/>
<path d="M113.039 117.168H89.539C86.585 117.168 84.182 114.765 84.182 111.81V77.45C84.182 74.162 86.857 71.487 90.145 71.487H113.04C113.316 71.487 113.54 71.711 113.54 71.987V116.668C113.539 116.944 113.315 117.168 113.039 117.168ZM90.144 72.487C87.408 72.487 85.181 74.714 85.181 77.45V111.81C85.181 114.213 87.136 116.168 89.538 116.168H112.538V72.487H90.144Z" fill="#6F6AD3"/>
<path d="M107.115 98.71H84.681C84.405 98.71 84.181 98.486 84.181 98.21C84.181 97.934 84.405 97.71 84.681 97.71H107.115C107.391 97.71 107.615 97.934 107.615 98.21C107.615 98.486 107.392 98.71 107.115 98.71Z" fill="#6F6AD3"/>
<path d="M88.102 94.852C87.826 94.852 87.602 94.628 87.602 94.352V91.19C87.602 90.914 87.826 90.69 88.102 90.69C88.378 90.69 88.602 90.914 88.602 91.19V94.352C88.602 94.628 88.378 94.852 88.102 94.852Z" fill="#6F6AD3"/>
<path d="M88.102 88.896C87.826 88.896 87.602 88.672 87.602 88.396V77.999C87.602 77.723 87.826 77.499 88.102 77.499C88.378 77.499 88.602 77.723 88.602 77.999V88.396C88.602 88.672 88.378 88.896 88.102 88.896Z" fill="#6F6AD3"/>
<path d="M386.85 202.759H370.965C370.689 202.759 370.465 202.535 370.465 202.259V57.193C370.465 56.917 370.689 56.693 370.965 56.693H386.85C387.126 56.693 387.35 56.917 387.35 57.193V202.258C387.35 202.535 387.126 202.759 386.85 202.759ZM371.465 201.759H386.35V57.693H371.465V201.759Z" fill="#6F6AD3"/>
<path d="M371.326 73.853C371.201 73.853 371.077 73.807 370.979 73.713C370.78 73.522 370.774 73.205 370.965 73.006L386.488 56.846C386.679 56.647 386.996 56.641 387.195 56.832C387.394 57.023 387.4 57.34 387.209 57.539L371.686 73.699C371.589 73.802 371.457 73.853 371.326 73.853Z" fill="#6F6AD3"/>
<path d="M386.85 73.853C386.719 73.853 386.587 73.802 386.49 73.699L370.967 57.539C370.776 57.34 370.782 57.023 370.981 56.832C371.181 56.642 371.498 56.647 371.688 56.846L387.211 73.006C387.402 73.205 387.396 73.522 387.197 73.713C387.099 73.807 386.975 73.853 386.85 73.853Z" fill="#6F6AD3"/>
<path d="M371.326 89.966C371.201 89.966 371.077 89.92 370.979 89.826C370.78 89.635 370.774 89.318 370.965 89.119L386.488 72.959C386.679 72.759 386.996 72.755 387.195 72.945C387.394 73.136 387.4 73.453 387.209 73.651L371.686 89.811C371.589 89.915 371.457 89.966 371.326 89.966Z" fill="#6F6AD3"/>
<path d="M386.85 89.966C386.719 89.966 386.587 89.915 386.49 89.812L370.967 73.652C370.776 73.453 370.782 73.136 370.981 72.946C371.181 72.756 371.498 72.76 371.688 72.96L387.211 89.12C387.402 89.319 387.396 89.636 387.197 89.827C387.099 89.92 386.975 89.966 386.85 89.966Z" fill="#6F6AD3"/>
<path d="M371.326 106.08C371.201 106.08 371.077 106.034 370.979 105.94C370.78 105.749 370.774 105.432 370.965 105.234L386.488 89.074C386.679 88.874 386.996 88.869 387.195 89.06C387.394 89.251 387.4 89.568 387.209 89.766L371.686 105.926C371.589 106.028 371.457 106.08 371.326 106.08Z" fill="#6F6AD3"/>
<path d="M386.85 106.08C386.719 106.08 386.587 106.029 386.49 105.926L370.967 89.766C370.776 89.567 370.782 89.25 370.981 89.06C371.181 88.869 371.498 88.874 371.688 89.074L387.211 105.234C387.402 105.433 387.396 105.75 387.197 105.94C387.099 106.033 386.975 106.08 386.85 106.08Z" fill="#6F6AD3"/>
<path d="M371.326 122.192C371.201 122.192 371.077 122.146 370.979 122.052C370.78 121.861 370.774 121.544 370.965 121.346L386.488 105.187C386.679 104.987 386.996 104.982 387.195 105.173C387.394 105.364 387.4 105.681 387.209 105.879L371.686 122.038C371.589 122.141 371.457 122.192 371.326 122.192Z" fill="#6F6AD3"/>
<path d="M386.85 122.192C386.719 122.192 386.587 122.141 386.49 122.038L370.967 105.879C370.776 105.68 370.782 105.363 370.981 105.173C371.181 104.982 371.498 104.987 371.688 105.187L387.211 121.346C387.402 121.545 387.396 121.862 387.197 122.052C387.099 122.146 386.975 122.192 386.85 122.192Z" fill="#6F6AD3"/>
<path d="M371.326 138.306C371.201 138.306 371.077 138.26 370.979 138.166C370.78 137.975 370.774 137.658 370.965 137.46L386.488 121.3C386.679 121.1 386.996 121.095 387.195 121.286C387.394 121.477 387.4 121.794 387.209 121.993L371.686 138.153C371.589 138.254 371.457 138.306 371.326 138.306Z" fill="#6F6AD3"/>
<path d="M386.85 138.306C386.719 138.306 386.587 138.255 386.49 138.152L370.967 121.992C370.776 121.793 370.782 121.476 370.981 121.285C371.181 121.095 371.498 121.099 371.688 121.299L387.211 137.459C387.402 137.658 387.396 137.975 387.197 138.165C387.099 138.259 386.975 138.306 386.85 138.306Z" fill="#6F6AD3"/>
<path d="M371.326 154.419C371.201 154.419 371.077 154.373 370.979 154.279C370.78 154.088 370.774 153.771 370.965 153.573L386.488 137.413C386.679 137.213 386.996 137.208 387.195 137.399C387.394 137.59 387.4 137.907 387.209 138.106L371.686 154.266C371.589 154.368 371.457 154.419 371.326 154.419Z" fill="#6F6AD3"/>
<path d="M386.85 154.419C386.719 154.419 386.587 154.368 386.49 154.265L370.967 138.105C370.776 137.906 370.782 137.589 370.981 137.398C371.181 137.208 371.498 137.212 371.688 137.412L387.211 153.572C387.402 153.771 387.396 154.088 387.197 154.278C387.099 154.373 386.975 154.419 386.85 154.419Z" fill="#6F6AD3"/>
<path d="M371.326 170.532C371.201 170.532 371.077 170.486 370.979 170.392C370.78 170.201 370.774 169.884 370.965 169.685L386.488 153.525C386.679 153.325 386.996 153.32 387.195 153.511C387.394 153.702 387.4 154.019 387.209 154.218L371.686 170.378C371.589 170.481 371.457 170.532 371.326 170.532Z" fill="#6F6AD3"/>
<path d="M386.85 170.532C386.719 170.532 386.587 170.481 386.49 170.378L370.967 154.218C370.776 154.019 370.782 153.702 370.981 153.511C371.181 153.32 371.498 153.325 371.688 153.525L387.211 169.685C387.402 169.884 387.396 170.201 387.197 170.392C387.099 170.486 386.975 170.532 386.85 170.532Z" fill="#6F6AD3"/>
<path d="M371.326 186.646C371.201 186.646 371.077 186.6 370.979 186.506C370.78 186.315 370.774 185.998 370.965 185.799L386.488 169.64C386.679 169.44 386.996 169.435 387.195 169.626C387.394 169.817 387.4 170.134 387.209 170.332L371.686 186.492C371.589 186.594 371.457 186.646 371.326 186.646Z" fill="#6F6AD3"/>
<path d="M386.85 186.646C386.719 186.646 386.587 186.594 386.49 186.493L370.967 170.333C370.776 170.134 370.782 169.817 370.981 169.627C371.181 169.436 371.498 169.441 371.688 169.641L387.211 185.8C387.402 185.999 387.396 186.316 387.197 186.507C387.099 186.6 386.975 186.646 386.85 186.646Z" fill="#6F6AD3"/>
<path d="M371.326 202.759C371.201 202.759 371.077 202.713 370.979 202.619C370.78 202.428 370.774 202.111 370.965 201.912L386.488 185.752C386.679 185.553 386.996 185.547 387.195 185.738C387.394 185.929 387.4 186.246 387.209 186.445L371.686 202.605C371.589 202.707 371.457 202.759 371.326 202.759Z" fill="#6F6AD3"/>
<path d="M386.85 202.759C386.719 202.759 386.587 202.707 386.49 202.606L370.967 186.446C370.776 186.247 370.782 185.93 370.981 185.739C371.181 185.548 371.498 185.553 371.688 185.753L387.211 201.913C387.402 202.112 387.396 202.429 387.197 202.62C387.099 202.713 386.975 202.759 386.85 202.759Z" fill="#6F6AD3"/>
<path d="M281.706 202.756H265.822C265.546 202.756 265.322 202.532 265.322 202.256V89.417C265.322 89.141 265.546 88.917 265.822 88.917H281.706C281.982 88.917 282.206 89.141 282.206 89.417V202.255C282.206 202.532 281.982 202.756 281.706 202.756ZM266.322 201.756H281.206V89.917H266.322V201.756Z" fill="#6F6AD3"/>
<path d="M266.183 106.077C266.058 106.077 265.934 106.031 265.836 105.937C265.637 105.746 265.631 105.429 265.822 105.231L281.345 89.071C281.536 88.87 281.853 88.866 282.052 89.057C282.251 89.248 282.257 89.565 282.066 89.764L266.543 105.924C266.445 106.026 266.314 106.077 266.183 106.077Z" fill="#6F6AD3"/>
<path d="M281.706 106.077C281.575 106.077 281.443 106.026 281.346 105.923L265.823 89.763C265.632 89.564 265.637 89.247 265.837 89.056C266.038 88.866 266.353 88.87 266.544 89.07L282.067 105.23C282.258 105.429 282.253 105.746 282.053 105.936C281.955 106.031 281.831 106.077 281.706 106.077Z" fill="#6F6AD3"/>
<path d="M266.183 122.19C266.058 122.19 265.934 122.144 265.836 122.05C265.637 121.859 265.631 121.542 265.822 121.343L281.345 105.183C281.536 104.983 281.853 104.978 282.052 105.169C282.251 105.36 282.257 105.677 282.066 105.876L266.543 122.036C266.445 122.139 266.314 122.19 266.183 122.19Z" fill="#6F6AD3"/>
<path d="M281.706 122.19C281.575 122.19 281.443 122.139 281.346 122.036L265.823 105.876C265.632 105.677 265.637 105.36 265.837 105.169C266.038 104.979 266.353 104.983 266.544 105.183L282.067 121.343C282.258 121.542 282.253 121.859 282.053 122.05C281.955 122.144 281.831 122.19 281.706 122.19Z" fill="#6F6AD3"/>
<path d="M266.183 138.304C266.058 138.304 265.934 138.258 265.836 138.164C265.637 137.973 265.631 137.656 265.822 137.457L281.345 121.297C281.536 121.097 281.853 121.092 282.052 121.283C282.251 121.474 282.257 121.791 282.066 121.989L266.543 138.149C266.445 138.252 266.314 138.304 266.183 138.304Z" fill="#6F6AD3"/>
<path d="M281.706 138.304C281.575 138.304 281.443 138.253 281.346 138.15L265.823 121.99C265.632 121.791 265.637 121.474 265.837 121.284C266.038 121.094 266.353 121.098 266.544 121.298L282.067 137.458C282.258 137.657 282.253 137.974 282.053 138.165C281.955 138.257 281.831 138.304 281.706 138.304Z" fill="#6F6AD3"/>
<path d="M266.183 154.417C266.058 154.417 265.934 154.371 265.836 154.277C265.637 154.086 265.631 153.769 265.822 153.57L281.345 137.41C281.536 137.21 281.853 137.206 282.052 137.396C282.251 137.587 282.257 137.904 282.066 138.102L266.543 154.262C266.445 154.365 266.314 154.417 266.183 154.417Z" fill="#6F6AD3"/>
<path d="M281.706 154.417C281.575 154.417 281.443 154.366 281.346 154.263L265.823 138.103C265.632 137.904 265.637 137.587 265.837 137.397C266.038 137.207 266.353 137.211 266.544 137.411L282.067 153.571C282.258 153.77 282.253 154.087 282.053 154.278C281.955 154.37 281.831 154.417 281.706 154.417Z" fill="#6F6AD3"/>
<path d="M266.183 170.53C266.058 170.53 265.934 170.484 265.836 170.39C265.637 170.199 265.631 169.882 265.822 169.683L281.345 153.523C281.536 153.323 281.853 153.318 282.052 153.509C282.251 153.7 282.257 154.017 282.066 154.215L266.543 170.375C266.445 170.479 266.314 170.53 266.183 170.53Z" fill="#6F6AD3"/>
<path d="M281.706 170.53C281.575 170.53 281.443 170.479 281.346 170.376L265.823 154.216C265.632 154.017 265.637 153.7 265.837 153.51C266.038 153.32 266.353 153.324 266.544 153.524L282.067 169.684C282.258 169.883 282.253 170.2 282.053 170.391C281.955 170.483 281.831 170.53 281.706 170.53Z" fill="#6F6AD3"/>
<path d="M266.183 186.644C266.058 186.644 265.934 186.598 265.836 186.504C265.637 186.313 265.631 185.996 265.822 185.797L281.345 169.637C281.536 169.438 281.853 169.432 282.052 169.623C282.251 169.814 282.257 170.131 282.066 170.33L266.543 186.491C266.445 186.592 266.314 186.644 266.183 186.644Z" fill="#6F6AD3"/>
<path d="M281.706 186.644C281.575 186.644 281.443 186.592 281.346 186.491L265.823 170.33C265.632 170.131 265.637 169.814 265.837 169.623C266.038 169.433 266.353 169.438 266.544 169.637L282.067 185.797C282.258 185.996 282.253 186.313 282.053 186.504C281.955 186.598 281.831 186.644 281.706 186.644Z" fill="#6F6AD3"/>
<path d="M266.183 202.756C266.058 202.756 265.934 202.71 265.836 202.616C265.637 202.425 265.631 202.108 265.822 201.909L281.345 185.75C281.536 185.551 281.853 185.545 282.052 185.736C282.251 185.927 282.257 186.244 282.066 186.443L266.543 202.602C266.445 202.704 266.314 202.756 266.183 202.756Z" fill="#6F6AD3"/>
<path d="M281.706 202.756C281.575 202.756 281.443 202.704 281.346 202.603L265.823 186.444C265.632 186.245 265.637 185.928 265.837 185.737C266.038 185.546 266.353 185.552 266.544 185.751L282.067 201.91C282.258 202.109 282.253 202.426 282.053 202.617C281.955 202.71 281.831 202.756 281.706 202.756Z" fill="#6F6AD3"/>
<path d="M152.482 194.318L152.148 191.766C152.464 191.109 152.783 188.79 152.155 180.121C151.935 177.082 150.871 175.027 148.993 174.013C145.582 172.172 140.594 174.353 139 175.146L135.908 144.804C135.863 144.346 135.629 143.921 135.265 143.639C134.896 143.353 134.439 143.236 133.977 143.308L132.039 143.613C130.963 143.782 130.025 144.414 129.463 145.347L128.305 147.272L102.225 138.383C101.057 137.985 99.841 137.806 98.605 137.833L95.507 137.917C91.914 138.014 88.681 139.922 86.86 143.022L80.318 154.156C78.238 153.295 75.961 152.818 73.574 152.818H62.159C61.946 152.818 61.774 152.99 61.774 153.203V166.577H48.68V162.1C48.68 160.504 47.382 159.207 45.787 159.207H31.406C29.811 159.207 28.513 160.505 28.513 162.1V166.577H25.453C23.222 166.577 21.407 168.392 21.407 170.623V183.908C21.407 185.259 22.079 186.45 23.099 187.185H21.673C17.517 187.185 14.136 190.566 14.136 194.722C14.136 198.878 17.517 202.259 21.673 202.259H92.37C96.526 202.259 99.907 198.878 99.907 194.722C99.907 190.566 96.526 187.185 92.37 187.185H89.975C90.759 186.554 91.272 185.599 91.272 184.517V182.855V170.515C91.272 170.193 91.262 169.874 91.245 169.557C91.239 169.446 91.228 169.337 91.22 169.226C91.205 169.022 91.19 168.818 91.169 168.615C91.154 168.474 91.134 168.335 91.116 168.195C91.094 168.028 91.072 167.861 91.046 167.695C91.02 167.534 90.99 167.375 90.96 167.215C90.934 167.077 90.907 166.939 90.878 166.802C90.84 166.622 90.798 166.443 90.754 166.265C90.727 166.157 90.7 166.05 90.671 165.943C90.617 165.741 90.56 165.54 90.499 165.34C90.478 165.272 90.456 165.204 90.434 165.136C90.36 164.903 90.282 164.672 90.199 164.443C90.197 164.437 90.194 164.431 90.192 164.425C89.527 162.609 88.567 160.912 87.339 159.398L93.713 151.218C95.855 148.468 99.308 147.193 102.725 147.894L125.902 152.643L133.105 184.707C133.106 184.712 133.111 184.715 133.112 184.72C133.128 184.783 133.161 184.839 133.208 184.888C133.214 184.895 133.218 184.902 133.225 184.908C133.229 184.911 133.231 184.916 133.235 184.92L146.86 196.193L147.637 201.135C147.659 201.272 147.753 201.387 147.883 201.436C147.927 201.452 147.972 201.46 148.017 201.46C148.106 201.46 148.195 201.428 148.266 201.369L150.49 199.485C151.993 198.206 152.739 196.275 152.482 194.318Z" fill="white"/>
<path d="M48.295 163.717H28.897V166.96H48.295V163.717Z" fill="#FFC866"/>
<path d="M73.573 153.201H62.158V166.96V187.407L62.155 187.568H62.158H67.271H87.833C89.519 187.568 90.886 186.201 90.886 184.515V170.513C90.886 160.953 83.134 153.201 73.573 153.201ZM90.483 182.452H72.728C71.002 182.452 69.598 181.048 69.598 179.322V160.56C69.598 158.834 71.002 157.43 72.728 157.43H84.269C84.276 157.435 84.283 157.44 84.289 157.445C84.305 157.458 84.321 157.47 84.337 157.483C84.736 157.813 85.118 158.162 85.485 158.527C85.511 158.552 85.536 158.578 85.562 158.604C87.444 160.498 88.88 162.832 89.702 165.438C89.713 165.473 89.724 165.507 89.735 165.541C89.886 166.03 90.014 166.53 90.121 167.037C90.133 167.096 90.144 167.156 90.156 167.215C90.256 167.716 90.335 168.223 90.389 168.738C90.394 168.79 90.397 168.842 90.402 168.895C90.453 169.429 90.484 169.968 90.484 170.515L90.483 182.452Z" fill="#FFC866"/>
<path d="M93.089 150.732L86.83 158.765C86.449 158.337 86.042 157.928 85.618 157.534C85.587 157.505 85.558 157.475 85.527 157.447C85.348 157.284 85.163 157.126 84.977 156.969C85.945 155.729 86.864 154.367 87.83 152.925C91.496 147.451 95.286 141.793 102.197 142.938C106.542 144.386 110.546 145.522 114.785 146.724C117.281 147.432 119.863 148.164 122.59 148.983C122.806 149.047 123.028 148.925 123.092 148.713C123.156 148.5 123.035 148.275 122.822 148.211C120.089 147.39 117.504 146.657 115.005 145.949C110.775 144.75 106.779 143.616 102.391 142.159C94.909 140.914 90.792 147.056 87.16 152.477C86.205 153.903 85.297 155.249 84.348 156.465C84.309 156.435 84.271 156.403 84.232 156.374C84.181 156.335 84.129 156.297 84.077 156.259C83.636 155.933 83.18 155.626 82.709 155.342C82.653 155.308 82.596 155.278 82.54 155.245C82.084 154.976 81.615 154.726 81.134 154.498C81.107 154.485 81.083 154.469 81.056 154.456L87.54 143.422C89.222 140.558 92.209 138.796 95.529 138.706L98.627 138.622C99.76 138.588 100.893 138.762 101.971 139.13L132.511 149.539C133.2 149.777 133.674 150.4 133.72 151.127C133.757 151.71 133.519 152.257 133.068 152.628C132.617 152.998 132.034 153.125 131.449 152.974L102.882 147.12C99.169 146.359 95.417 147.744 93.089 150.732Z" fill="#D3D3F4"/>
<path d="M131.264 153.758C132.081 153.972 132.925 153.786 133.578 153.249C134.231 152.712 134.575 151.919 134.523 151.075C134.458 150.022 133.77 149.119 132.771 148.774L129.076 147.515L130.136 145.752C130.577 145.019 131.315 144.522 132.159 144.39L134.097 144.085C134.342 144.046 134.585 144.109 134.781 144.261C134.977 144.413 135.098 144.632 135.122 144.881L138.258 175.656L137.052 177.716L136.549 178.574C135.998 175.309 135.408 172.451 134.836 169.684C134.214 166.677 133.571 163.568 132.982 159.945C132.946 159.726 132.74 159.577 132.519 159.612C132.299 159.648 132.15 159.855 132.186 160.074C132.778 163.714 133.423 166.832 134.046 169.847C134.668 172.853 135.311 175.962 135.9 179.585C135.903 179.607 135.915 179.625 135.921 179.645L133.644 183.533L126.747 152.832L131.264 153.758Z" fill="#D3D3F4"/>
<path d="M64.492 187.017H24.518C23.012 187.017 21.79 185.796 21.79 184.289V179.686H64.491L64.492 187.017Z" fill="#FFC866"/>
<path d="M150.52 198.336L149.866 193.878C149.851 193.775 149.796 193.681 149.714 193.618L135.235 182.418L138.964 176.05C139.75 175.635 145.233 172.879 148.619 174.708C150.244 175.586 151.169 177.427 151.368 180.179C152.05 189.605 151.561 191.179 151.46 191.395C151.375 191.481 151.33 191.604 151.347 191.73L151.7 194.424C151.889 195.854 151.449 197.266 150.52 198.336Z" fill="#FFC866"/>
<path d="M92.368 187.569H21.672C17.722 187.569 14.52 190.771 14.52 194.721C14.52 198.671 17.722 201.873 21.672 201.873H92.369C96.319 201.873 99.521 198.671 99.521 194.721C99.521 190.771 96.319 187.569 92.368 187.569ZM92.368 199.882H21.672C18.717 199.882 16.334 197.384 16.522 194.39C16.696 191.637 19.115 189.562 21.873 189.562C33.565 189.562 80.475 189.562 92.167 189.562C94.925 189.562 97.345 191.637 97.518 194.39C97.707 197.384 95.324 199.882 92.368 199.882Z" fill="#D3D3F4"/>
<path d="M87.833 188.069H25.453C23.158 188.069 21.291 186.202 21.291 183.907V170.622C21.291 168.327 23.158 166.46 25.453 166.46H61.659V153.201C61.659 152.925 61.883 152.701 62.159 152.701H73.574C83.396 152.701 91.387 160.692 91.387 170.514V184.516C91.386 186.476 89.792 188.069 87.833 188.069ZM25.453 167.46C23.71 167.46 22.291 168.879 22.291 170.622V183.907C22.291 185.65 23.71 187.069 25.453 187.069H87.833C89.241 187.069 90.386 185.923 90.386 184.516V170.514C90.386 161.243 82.844 153.701 73.573 153.701H62.658V166.96C62.658 167.236 62.434 167.46 62.158 167.46H25.453Z" fill="#6F6AD3"/>
<path d="M48.295 167.46H28.897C28.621 167.46 28.397 167.236 28.397 166.96V162.099C28.397 160.44 29.747 159.09 31.405 159.09H45.786C47.445 159.09 48.794 160.44 48.794 162.099V166.96C48.795 167.237 48.571 167.46 48.295 167.46ZM29.397 166.46H47.794V162.099C47.794 160.992 46.893 160.09 45.786 160.09H31.406C30.299 160.09 29.398 160.991 29.398 162.099L29.397 166.46Z" fill="#6F6AD3"/>
<path d="M90.886 183.354H72.728C70.504 183.354 68.695 181.545 68.695 179.322V160.56C68.695 158.336 70.504 156.527 72.728 156.527H84.423C84.537 156.527 84.648 156.566 84.736 156.638C88.962 160.042 91.385 165.1 91.385 170.515V182.855C91.386 183.131 91.162 183.354 90.886 183.354ZM72.727 157.527C71.055 157.527 69.694 158.887 69.694 160.56V179.323C69.694 180.995 71.054 182.355 72.727 182.355H90.385V170.515C90.385 165.463 88.149 160.74 84.244 157.528H72.727V157.527Z" fill="#6F6AD3"/>
<path d="M92.369 202.374H21.672C17.452 202.374 14.019 198.941 14.019 194.722C14.019 190.503 17.452 187.07 21.672 187.07H92.369C96.589 187.07 100.021 190.503 100.021 194.722C100.021 198.941 96.588 202.374 92.369 202.374ZM21.672 188.069C18.004 188.069 15.019 191.053 15.019 194.721C15.019 198.389 18.003 201.373 21.672 201.373H92.369C96.037 201.373 99.021 198.389 99.021 194.721C99.021 191.053 96.037 188.069 92.369 188.069H21.672Z" fill="#6F6AD3"/>
<path d="M92.369 200.382H21.672C20.117 200.382 18.613 199.73 17.546 198.593C16.465 197.441 15.923 195.937 16.023 194.358C16.21 191.388 18.78 189.062 21.873 189.062H92.167C95.26 189.062 97.83 191.388 98.017 194.358C98.117 195.937 97.576 197.442 96.494 198.594C95.427 199.729 93.923 200.382 92.369 200.382ZM21.873 190.061C19.306 190.061 17.175 191.975 17.021 194.419C16.939 195.72 17.384 196.959 18.275 197.907C19.167 198.857 20.374 199.381 21.672 199.381H92.369C93.667 199.381 94.873 198.858 95.765 197.908C96.656 196.959 97.101 195.719 97.019 194.419C96.865 191.975 94.734 190.061 92.167 190.061H21.873Z" fill="#6F6AD3"/>
<path d="M88.02 198.961C85.682 198.961 83.78 197.06 83.78 194.722C83.78 192.384 85.682 190.482 88.02 190.482C90.357 190.482 92.259 192.384 92.259 194.722C92.259 197.06 90.357 198.961 88.02 198.961ZM88.02 191.481C86.233 191.481 84.78 192.934 84.78 194.721C84.78 196.507 86.233 197.96 88.02 197.96C89.806 197.96 91.259 196.507 91.259 194.721C91.259 192.935 89.806 191.481 88.02 191.481Z" fill="#6F6AD3"/>
<path d="M88.019 196.959C89.253 196.959 90.257 195.955 90.257 194.721C90.257 193.487 89.253 192.483 88.019 192.483C86.785 192.483 85.781 193.487 85.781 194.721C85.781 195.955 86.785 196.959 88.019 196.959Z" fill="#D3D3F4"/>
<path d="M79.163 198.961C76.825 198.961 74.923 197.06 74.923 194.722C74.923 192.384 76.825 190.482 79.163 190.482C81.5 190.482 83.402 192.384 83.402 194.722C83.402 197.06 81.5 198.961 79.163 198.961ZM79.163 191.481C77.376 191.481 75.923 192.934 75.923 194.721C75.923 196.507 77.376 197.96 79.163 197.96C80.949 197.96 82.402 196.507 82.402 194.721C82.402 192.935 80.949 191.481 79.163 191.481Z" fill="#6F6AD3"/>
<path d="M79.162 196.959C80.396 196.959 81.4 195.955 81.4 194.721C81.4 193.487 80.396 192.483 79.162 192.483C77.928 192.483 76.924 193.487 76.924 194.721C76.924 195.955 77.928 196.959 79.162 196.959Z" fill="#D3D3F4"/>
<path d="M70.306 198.961C67.968 198.961 66.066 197.06 66.066 194.722C66.066 192.384 67.968 190.482 70.306 190.482C72.643 190.482 74.545 192.384 74.545 194.722C74.545 197.06 72.643 198.961 70.306 198.961ZM70.306 191.481C68.519 191.481 67.066 192.934 67.066 194.721C67.066 196.507 68.519 197.96 70.306 197.96C72.092 197.96 73.545 196.507 73.545 194.721C73.545 192.935 72.092 191.481 70.306 191.481Z" fill="#6F6AD3"/>
<path d="M70.305 196.959C71.539 196.959 72.543 195.955 72.543 194.721C72.543 193.487 71.539 192.483 70.305 192.483C69.071 192.483 68.067 193.487 68.067 194.721C68.067 195.955 69.071 196.959 70.305 196.959Z" fill="#D3D3F4"/>
<path d="M61.449 198.961C59.111 198.961 57.209 197.06 57.209 194.722C57.209 192.384 59.111 190.482 61.449 190.482C63.786 190.482 65.688 192.384 65.688 194.722C65.688 197.06 63.786 198.961 61.449 198.961ZM61.449 191.481C59.662 191.481 58.209 192.934 58.209 194.721C58.209 196.507 59.662 197.96 61.449 197.96C63.235 197.96 64.688 196.507 64.688 194.721C64.688 192.935 63.235 191.481 61.449 191.481Z" fill="#6F6AD3"/>
<path d="M61.449 196.959C62.683 196.959 63.687 195.955 63.687 194.721C63.687 193.487 62.683 192.483 61.449 192.483C60.215 192.483 59.211 193.487 59.211 194.721C59.211 195.955 60.215 196.959 61.449 196.959Z" fill="#D3D3F4"/>
<path d="M52.592 198.961C50.254 198.961 48.352 197.06 48.352 194.722C48.352 192.384 50.254 190.482 52.592 190.482C54.929 190.482 56.831 192.384 56.831 194.722C56.831 197.06 54.929 198.961 52.592 198.961ZM52.592 191.481C50.805 191.481 49.352 192.934 49.352 194.721C49.352 196.507 50.805 197.96 52.592 197.96C54.378 197.96 55.831 196.507 55.831 194.721C55.831 192.935 54.378 191.481 52.592 191.481Z" fill="#6F6AD3"/>
<path d="M52.592 196.959C53.826 196.959 54.83 195.955 54.83 194.721C54.83 193.487 53.826 192.483 52.592 192.483C51.358 192.483 50.354 193.487 50.354 194.721C50.354 195.955 51.358 196.959 52.592 196.959Z" fill="#D3D3F4"/>
<path d="M43.735 198.961C41.397 198.961 39.495 197.06 39.495 194.722C39.495 192.384 41.397 190.482 43.735 190.482C46.072 190.482 47.974 192.384 47.974 194.722C47.974 197.06 46.072 198.961 43.735 198.961ZM43.735 191.481C41.948 191.481 40.495 192.934 40.495 194.721C40.495 196.507 41.948 197.96 43.735 197.96C45.521 197.96 46.974 196.507 46.974 194.721C46.974 192.935 45.521 191.481 43.735 191.481Z" fill="#6F6AD3"/>
<path d="M43.735 196.959C44.969 196.959 45.973 195.955 45.973 194.721C45.973 193.487 44.969 192.483 43.735 192.483C42.501 192.483 41.497 193.487 41.497 194.721C41.497 195.955 42.501 196.959 43.735 196.959Z" fill="#D3D3F4"/>
<path d="M34.878 198.961C32.54 198.961 30.638 197.06 30.638 194.722C30.638 192.384 32.54 190.482 34.878 190.482C37.215 190.482 39.117 192.384 39.117 194.722C39.117 197.06 37.215 198.961 34.878 198.961ZM34.878 191.481C33.091 191.481 31.638 192.934 31.638 194.721C31.638 196.507 33.091 197.96 34.878 197.96C36.664 197.96 38.117 196.507 38.117 194.721C38.117 192.935 36.664 191.481 34.878 191.481Z" fill="#6F6AD3"/>
<path d="M34.878 196.959C36.112 196.959 37.116 195.955 37.116 194.721C37.116 193.487 36.112 192.483 34.878 192.483C33.644 192.483 32.64 193.487 32.64 194.721C32.64 195.955 33.644 196.959 34.878 196.959Z" fill="#D3D3F4"/>
<path d="M26.021 198.961C23.683 198.961 21.781 197.06 21.781 194.722C21.781 192.384 23.683 190.482 26.021 190.482C28.358 190.482 30.26 192.384 30.26 194.722C30.26 197.06 28.358 198.961 26.021 198.961ZM26.021 191.481C24.234 191.481 22.781 192.934 22.781 194.721C22.781 196.507 24.234 197.96 26.021 197.96C27.807 197.96 29.26 196.507 29.26 194.721C29.26 192.935 27.807 191.481 26.021 191.481Z" fill="#6F6AD3"/>
<path d="M26.021 196.959C27.255 196.959 28.259 195.955 28.259 194.721C28.259 193.487 27.255 192.483 26.021 192.483C24.787 192.483 23.783 193.487 23.783 194.721C23.783 195.955 24.787 196.959 26.021 196.959Z" fill="#D3D3F4"/>
<path d="M21.791 180.186C21.518 180.186 21.295 179.966 21.291 179.693C21.287 179.417 21.508 179.19 21.784 179.186C31.987 179.045 42.727 179.045 52.844 179.186C53.12 179.19 53.341 179.416 53.337 179.693C53.333 179.968 53.099 180.179 52.83 180.186C42.723 180.045 31.991 180.045 21.797 180.186C21.795 180.186 21.793 180.186 21.791 180.186Z" fill="#6F6AD3"/>
<path d="M59.255 180.186H54.356C54.08 180.186 53.856 179.962 53.856 179.686C53.856 179.41 54.08 179.186 54.356 179.186H59.255C59.531 179.186 59.755 179.41 59.755 179.686C59.755 179.962 59.531 180.186 59.255 180.186Z" fill="#6F6AD3"/>
<path d="M48.165 164.217H28.897C28.621 164.217 28.397 163.993 28.397 163.717C28.397 163.441 28.621 163.217 28.897 163.217H48.164C48.44 163.217 48.664 163.441 48.664 163.717C48.664 163.993 48.441 164.217 48.165 164.217Z" fill="#6F6AD3"/>
<path d="M62.158 187.908C61.882 187.908 61.658 187.684 61.658 187.408V166.96C61.658 166.684 61.882 166.46 62.158 166.46C62.434 166.46 62.658 166.684 62.658 166.96V187.408C62.658 187.685 62.435 187.908 62.158 187.908Z" fill="#6F6AD3"/>
<path d="M133.477 185.12C133.452 185.12 133.426 185.118 133.4 185.114C133.197 185.083 133.034 184.929 132.989 184.729L125.736 152.441C125.675 152.172 125.845 151.904 126.114 151.844C126.382 151.781 126.651 151.953 126.711 152.222L133.687 183.271L138.159 175.634L135.026 144.89C135.005 144.667 134.897 144.472 134.722 144.336C134.547 144.201 134.327 144.143 134.113 144.18L132.175 144.485C131.359 144.613 130.646 145.093 130.22 145.801L128.923 147.958C128.78 148.193 128.472 148.27 128.237 148.129C128.001 147.986 127.924 147.679 128.066 147.442L129.363 145.285C129.942 144.323 130.91 143.671 132.02 143.496L133.958 143.191C134.444 143.115 134.946 143.244 135.335 143.545C135.724 143.847 135.975 144.3 136.022 144.79L139.171 175.694C139.182 175.799 139.158 175.906 139.105 175.997L133.909 184.87C133.818 185.027 133.653 185.12 133.477 185.12Z" fill="#6F6AD3"/>
<path d="M148.014 201.572C147.955 201.572 147.896 201.561 147.84 201.541C147.67 201.478 147.548 201.328 147.52 201.149L146.75 196.251L133.159 185.005C132.97 184.849 132.923 184.579 133.046 184.367L138.242 175.494C138.287 175.417 138.352 175.354 138.43 175.31C138.695 175.163 144.973 171.711 149.048 173.911C150.963 174.945 152.047 177.031 152.27 180.112C152.882 188.562 152.603 191.025 152.267 191.786L152.597 194.305C152.859 196.301 152.098 198.269 150.561 199.571L148.337 201.455C148.245 201.531 148.13 201.572 148.014 201.572ZM134.124 184.506L147.533 195.602C147.627 195.679 147.689 195.788 147.708 195.91L148.369 200.116L149.914 198.807C151.19 197.727 151.822 196.092 151.605 194.435L151.252 191.742C151.232 191.593 151.282 191.446 151.378 191.341C151.48 191.096 151.94 189.429 151.271 180.186C151.074 177.469 150.166 175.655 148.572 174.794C145.261 173.004 139.89 175.674 139.032 176.124L134.124 184.506Z" fill="#6F6AD3"/>
<path d="M86.845 159.9C86.697 159.9 86.557 159.835 86.462 159.721C84.792 157.729 82.654 156.13 80.28 155.096C80.149 155.039 80.048 154.928 80.004 154.792C79.96 154.656 79.976 154.507 80.048 154.384L86.76 142.963C88.602 139.83 91.87 137.9 95.503 137.802L98.602 137.718C99.851 137.687 101.082 137.872 102.263 138.275L132.804 148.684C133.84 149.041 134.553 149.978 134.621 151.07C134.676 151.946 134.318 152.768 133.641 153.325C132.963 153.883 132.087 154.074 131.24 153.853L102.699 148.005C99.33 147.313 95.917 148.571 93.802 151.287L87.24 159.708C87.147 159.827 87.006 159.898 86.854 159.901C86.851 159.9 86.848 159.9 86.845 159.9ZM81.192 154.413C83.317 155.421 85.246 156.86 86.824 158.614L93.012 150.672C95.363 147.654 99.154 146.258 102.9 147.025L131.467 152.879C132.028 153.025 132.579 152.903 133.006 152.552C133.433 152.201 133.657 151.683 133.623 151.132C133.58 150.444 133.131 149.854 132.479 149.629L101.939 139.221C100.872 138.857 99.761 138.689 98.628 138.718L95.53 138.802C92.244 138.89 89.287 140.635 87.622 143.47L81.192 154.413Z" fill="#6F6AD3"/>
<path d="M131.559 152.874C130.586 152.874 129.794 152.082 129.794 151.109C129.794 150.135 130.586 149.343 131.559 149.343C132.533 149.343 133.325 150.135 133.325 151.109C133.325 152.082 132.533 152.874 131.559 152.874ZM131.559 150.343C131.137 150.343 130.794 150.686 130.794 151.109C130.794 151.531 131.137 151.874 131.559 151.874C131.981 151.874 132.325 151.531 132.325 151.109C132.325 150.686 131.981 150.343 131.559 150.343Z" fill="#6F6AD3"/>
<path d="M88.016 175.891C87.74 175.891 87.516 175.667 87.516 175.391V167.246C87.516 166.97 87.74 166.746 88.016 166.746C88.292 166.746 88.516 166.97 88.516 167.246V175.391C88.516 175.667 88.292 175.891 88.016 175.891Z" fill="#6F6AD3"/>
<path d="M88.016 180.885C87.74 180.885 87.516 180.661 87.516 180.385V177.44C87.516 177.164 87.74 176.94 88.016 176.94C88.292 176.94 88.516 177.164 88.516 177.44V180.385C88.516 180.661 88.292 180.885 88.016 180.885Z" fill="#6F6AD3"/>
<path d="M132.241 158.393C132 158.393 131.788 158.219 131.748 157.974L131.278 155.084C131.234 154.812 131.419 154.555 131.692 154.51C131.969 154.463 132.221 154.651 132.266 154.923L132.736 157.812C132.78 158.085 132.595 158.342 132.323 158.386C132.294 158.391 132.267 158.393 132.241 158.393Z" fill="#6F6AD3"/>
<path d="M136.3 180.021C136.059 180.021 135.847 179.846 135.807 179.601C135.218 175.981 134.576 172.873 133.954 169.868C133.33 166.852 132.685 163.733 132.093 160.09C132.049 159.818 132.234 159.561 132.507 159.516C132.781 159.472 133.036 159.657 133.081 159.93C133.67 163.551 134.313 166.659 134.935 169.665C135.559 172.681 136.203 175.799 136.796 179.441C136.84 179.713 136.655 179.97 136.383 180.014C136.354 180.02 136.326 180.021 136.3 180.021Z" fill="#6F6AD3"/>
<path d="M84.422 157.527C84.313 157.527 84.202 157.491 84.109 157.417C83.894 157.244 83.859 156.93 84.032 156.714C85.066 155.425 86.043 153.966 87.077 152.422C90.725 146.977 94.858 140.802 102.404 142.062C106.804 143.522 110.799 144.655 115.027 145.854C117.541 146.566 120.114 147.296 122.847 148.117C123.111 148.197 123.261 148.475 123.182 148.74C123.102 149.004 122.826 149.153 122.559 149.075C119.831 148.255 117.263 147.527 114.754 146.816C110.514 145.614 106.509 144.478 102.163 143.029C95.333 141.896 91.556 147.531 87.907 152.978C86.861 154.541 85.872 156.016 84.811 157.339C84.714 157.463 84.569 157.527 84.422 157.527Z" fill="#6F6AD3"/>
<path d="M127.669 150.503C127.624 150.503 127.578 150.497 127.532 150.484L124.528 149.632C124.262 149.557 124.108 149.28 124.183 149.015C124.258 148.748 124.536 148.591 124.8 148.67L127.804 149.522C128.07 149.597 128.224 149.873 128.149 150.139C128.087 150.36 127.887 150.503 127.669 150.503Z" fill="#6F6AD3"/>
<path d="M150.237 199.689C149.993 199.689 149.78 199.51 149.743 199.261L149.002 194.209L134.469 182.966C134.251 182.797 134.211 182.483 134.38 182.265C134.549 182.046 134.863 182.007 135.082 182.175L149.774 193.541C149.876 193.62 149.944 193.736 149.963 193.864L150.733 199.116C150.773 199.388 150.584 199.643 150.311 199.683C150.286 199.686 150.261 199.689 150.237 199.689Z" fill="#6F6AD3"/>
<path d="M277.596 184.465C272.585 184.465 268.507 188.542 268.507 193.553C268.507 198.564 272.584 202.641 277.596 202.641C282.608 202.641 286.684 198.564 286.684 193.553C286.684 188.542 282.607 184.465 277.596 184.465Z" fill="white"/>
<path d="M338.702 184.465C333.691 184.465 329.614 188.542 329.614 193.553C329.614 198.564 333.691 202.641 338.702 202.641C343.713 202.641 347.79 198.564 347.79 193.553C347.79 188.542 343.713 184.465 338.702 184.465Z" fill="white"/>
<path d="M360.939 184.465C355.928 184.465 351.851 188.542 351.851 193.553C351.851 198.564 355.928 202.641 360.939 202.641C365.95 202.641 370.028 198.564 370.028 193.553C370.027 188.542 365.95 184.465 360.939 184.465Z" fill="white"/>
<path d="M378.758 155.951H302.304V149.914C302.304 149.687 302.121 149.504 301.894 149.504H283.793C283.566 149.504 283.383 149.687 283.383 149.914V153.881C283.383 154.108 283.566 154.291 283.793 154.291H297.021V187.688H295.749V155.617C295.749 155.39 295.566 155.207 295.339 155.207H277.152C274.817 155.207 272.588 156.324 271.191 158.195L260.068 173.088C259.917 173.291 259.78 173.503 259.651 173.72C259.621 173.771 259.592 173.823 259.562 173.875C259.451 174.071 259.349 174.271 259.257 174.476C259.247 174.499 259.233 174.52 259.223 174.544C259.222 174.547 259.223 174.55 259.222 174.552C258.811 175.491 258.59 176.512 258.59 177.54V190.281H256.836C255.343 190.281 254.127 191.496 254.127 192.989C254.127 194.482 255.343 195.697 256.836 195.697H267.329C267.45 195.697 267.565 195.644 267.642 195.552C267.719 195.46 267.753 195.338 267.733 195.219C267.639 194.661 267.592 194.099 267.592 193.552C267.592 192.625 267.722 191.7 267.977 190.803C269.196 186.532 273.151 183.548 277.596 183.548C282.04 183.548 285.995 186.532 287.214 190.803C287.469 191.7 287.599 192.625 287.599 193.552C287.599 194.1 287.552 194.661 287.458 195.219C287.438 195.338 287.472 195.46 287.549 195.552C287.627 195.644 287.741 195.697 287.862 195.697H295.339C295.358 195.697 295.375 195.689 295.393 195.686C295.411 195.689 295.428 195.697 295.447 195.697H328.688C328.809 195.697 328.923 195.643 329.002 195.551C329.08 195.458 329.113 195.336 329.092 195.217C328.996 194.66 328.947 194.1 328.947 193.551C328.947 191.694 329.476 189.884 330.477 188.317C332.284 185.485 335.359 183.795 338.703 183.795C342.045 183.795 345.12 185.485 346.929 188.315V188.317C347.93 189.883 348.459 191.693 348.459 193.551C348.459 194.1 348.41 194.66 348.314 195.217C348.293 195.336 348.326 195.458 348.404 195.551C348.482 195.643 348.597 195.697 348.718 195.697H350.926C351.047 195.697 351.161 195.643 351.24 195.551C351.318 195.458 351.351 195.336 351.33 195.217C351.234 194.66 351.185 194.1 351.185 193.551C351.185 191.694 351.714 189.884 352.715 188.317L352.716 188.315C354.525 185.485 357.599 183.795 360.941 183.795C364.283 183.795 367.358 185.485 369.167 188.315L369.168 188.317C370.169 189.883 370.697 191.693 370.697 193.551C370.697 194.1 370.648 194.66 370.552 195.217C370.531 195.336 370.564 195.458 370.642 195.551C370.721 195.643 370.835 195.697 370.956 195.697H374.546C374.773 195.697 374.956 195.514 374.956 195.287V188.507H378.761C378.988 188.507 379.171 188.324 379.171 188.097V156.36C379.168 156.134 378.985 155.951 378.758 155.951Z" fill="white"/>
<path d="M297.431 169.502V179.665H378.758V156.361H301.894V153.881V149.914H298.175H283.794V153.881H297.431V169.502ZM373.985 159.026H376.403V176.878H373.985V159.026ZM368.034 159.026H370.452V176.878H368.034V159.026ZM362.083 159.026H364.501V176.878H362.083V159.026ZM356.133 159.026H358.55V176.878H356.133V159.026ZM350.182 159.026H352.599V176.878H350.182V159.026ZM344.231 159.026H346.649V176.878H344.231V159.026ZM338.281 159.026H340.698V176.878H338.281V159.026ZM332.33 159.026H334.748V176.878H332.33V159.026ZM326.379 159.026H328.797V176.878H326.379V159.026ZM320.428 159.026H322.846V176.878H320.428V159.026ZM314.478 159.026H316.895V176.878H314.478V159.026ZM308.527 159.026H310.945V176.878H308.527V159.026ZM302.576 159.026H304.994V176.878H302.576V159.026Z" fill="#D3D3F4"/>
<path d="M360.939 184.875C356.146 184.875 352.261 188.76 352.261 193.553C352.261 198.346 356.146 202.231 360.939 202.231C365.732 202.231 369.617 198.346 369.617 193.553C369.617 188.76 365.732 184.875 360.939 184.875ZM365.229 197.843C362.86 200.212 359.018 200.212 356.649 197.843C354.28 195.474 354.28 191.632 356.649 189.263C359.018 186.894 362.86 186.894 365.229 189.263C367.598 191.632 367.598 195.474 365.229 197.843Z" fill="#D3D3F4"/>
<path d="M338.702 184.875C333.909 184.875 330.024 188.76 330.024 193.553C330.024 198.346 333.909 202.231 338.702 202.231C343.495 202.231 347.38 198.346 347.38 193.553C347.38 188.76 343.495 184.875 338.702 184.875ZM342.992 197.843C340.623 200.212 336.781 200.212 334.412 197.843C332.043 195.474 332.043 191.632 334.412 189.263C336.781 186.894 340.623 186.894 342.992 189.263C345.362 191.632 345.362 195.474 342.992 197.843Z" fill="#D3D3F4"/>
<path d="M277.595 184.875C272.802 184.875 268.917 188.76 268.917 193.553C268.917 198.346 272.802 202.231 277.595 202.231C282.388 202.231 286.273 198.346 286.273 193.553C286.273 188.76 282.388 184.875 277.595 184.875ZM281.885 197.843C279.516 200.212 275.674 200.212 273.305 197.843C270.936 195.474 270.936 191.632 273.305 189.263C275.674 186.894 279.516 186.894 281.885 189.263C284.255 191.632 284.255 195.474 281.885 197.843Z" fill="#D3D3F4"/>
<path d="M259.992 173.948C260.117 173.737 260.25 173.531 260.397 173.333C260.249 173.531 260.117 173.738 259.992 173.948Z" fill="#D3D3F4"/>
<path d="M259.598 174.708C259.694 174.489 259.805 174.276 259.923 174.067C259.805 174.276 259.695 174.489 259.598 174.708Z" fill="#D3D3F4"/>
<path d="M277.152 155.617C274.934 155.617 272.846 156.664 271.519 158.441L271.035 159.089H279.193C280.364 159.089 281.314 160.038 281.314 161.21V170.303C281.314 172.737 279.341 174.711 276.907 174.711H259.598C259.207 175.598 258.999 176.561 258.999 177.542V190.694H267.583C268.827 186.334 272.837 183.141 277.595 183.141C282.354 183.141 286.364 186.334 287.608 190.694H295.34V155.619H277.152V155.617ZM293.464 172.795C293.464 173.852 292.607 174.709 291.55 174.709H285.46C284.403 174.709 283.546 173.852 283.546 172.795V161.003C283.546 159.946 284.403 159.089 285.46 159.089H291.55C292.607 159.089 293.464 159.946 293.464 161.003V172.795Z" fill="#FFC866"/>
<path d="M295.339 191.191H287.607C287.383 191.191 287.187 191.043 287.127 190.828C285.919 186.596 282 183.639 277.595 183.639C273.191 183.639 269.272 186.596 268.064 190.828C268.003 191.043 267.807 191.191 267.584 191.191H259C258.724 191.191 258.5 190.967 258.5 190.691V177.54C258.5 175.927 259.031 174.327 259.997 173.034L271.12 158.141C272.534 156.248 274.79 155.117 277.153 155.117H295.34C295.616 155.117 295.84 155.341 295.84 155.617V190.692C295.839 190.968 295.615 191.191 295.339 191.191ZM287.977 190.191H294.838V156.116H277.151C275.101 156.116 273.145 157.096 271.919 158.739L260.796 173.632C259.959 174.753 259.498 176.14 259.498 177.539V190.19H267.212C268.656 185.724 272.872 182.637 277.594 182.637C282.317 182.639 286.533 185.726 287.977 190.191Z" fill="#6F6AD3"/>
<path d="M267.328 195.788H256.835C255.292 195.788 254.036 194.533 254.036 192.99C254.036 191.447 255.292 190.191 256.835 190.191H267.583C267.74 190.191 267.888 190.264 267.982 190.39C268.076 190.515 268.106 190.677 268.063 190.829C267.81 191.717 267.681 192.634 267.681 193.553C267.681 194.098 267.728 194.654 267.821 195.205C267.845 195.35 267.804 195.499 267.71 195.611C267.615 195.724 267.476 195.788 267.328 195.788ZM256.835 191.191C255.843 191.191 255.036 191.998 255.036 192.99C255.036 193.981 255.843 194.788 256.835 194.788H266.753C266.705 194.374 266.682 193.961 266.682 193.553C266.682 192.759 266.769 191.968 266.941 191.192L256.835 191.191Z" fill="#6F6AD3"/>
<path d="M295.339 195.788H287.862C287.714 195.788 287.575 195.724 287.48 195.611C287.385 195.499 287.344 195.35 287.369 195.205C287.462 194.653 287.509 194.098 287.509 193.553C287.509 192.634 287.38 191.717 287.127 190.829C287.084 190.678 287.114 190.515 287.208 190.39C287.303 190.264 287.45 190.191 287.607 190.191H295.339C295.615 190.191 295.839 190.415 295.839 190.691V195.288C295.839 195.565 295.615 195.788 295.339 195.788ZM288.438 194.788H294.839V191.191H288.25C288.422 191.967 288.509 192.758 288.509 193.552C288.509 193.961 288.485 194.374 288.438 194.788Z" fill="#6F6AD3"/>
<path d="M276.907 175.209H259.597C259.428 175.209 259.271 175.124 259.178 174.982C259.086 174.84 259.072 174.662 259.14 174.507C259.374 173.976 259.662 173.48 259.995 173.034L270.634 158.788C270.728 158.661 270.876 158.587 271.034 158.587H279.193C280.637 158.587 281.813 159.763 281.813 161.208V170.301C281.814 173.007 279.613 175.209 276.907 175.209ZM260.414 174.209H276.907C279.061 174.209 280.814 172.456 280.814 170.301V161.208C280.814 160.314 280.087 159.587 279.194 159.587H271.286L260.797 173.632C260.661 173.815 260.533 174.008 260.414 174.209Z" fill="#6F6AD3"/>
<path d="M291.55 175.209H285.46C284.129 175.209 283.046 174.126 283.046 172.795V161.002C283.046 159.671 284.129 158.588 285.46 158.588H291.55C292.881 158.588 293.964 159.671 293.964 161.002V172.795C293.964 174.126 292.881 175.209 291.55 175.209ZM285.46 159.588C284.681 159.588 284.046 160.223 284.046 161.002V172.795C284.046 173.575 284.681 174.209 285.46 174.209H291.55C292.329 174.209 292.964 173.575 292.964 172.795V161.002C292.964 160.222 292.329 159.588 291.55 159.588H285.46Z" fill="#6F6AD3"/>
<path d="M274.532 190.577C275.093 190.759 275.401 191.362 275.219 191.923C275.037 192.484 274.434 192.792 273.873 192.61C273.312 192.428 273.004 191.825 273.187 191.264C273.367 190.702 273.97 190.395 274.532 190.577Z" fill="#6055C9"/>
<path d="M281.319 194.496C281.88 194.678 282.188 195.281 282.006 195.842C281.824 196.403 281.221 196.711 280.66 196.528C280.099 196.346 279.791 195.743 279.973 195.182C280.154 194.621 280.757 194.313 281.319 194.496Z" fill="#6055C9"/>
<path d="M273.486 194.718C273.925 194.323 274.6 194.358 274.995 194.796C275.39 195.235 275.355 195.91 274.917 196.305C274.478 196.7 273.803 196.665 273.408 196.226C273.013 195.789 273.048 195.113 273.486 194.718Z" fill="#6055C9"/>
<path d="M280.273 190.8C280.712 190.405 281.387 190.44 281.782 190.878C282.177 191.317 282.142 191.992 281.704 192.387C281.265 192.782 280.59 192.747 280.195 192.308C279.8 191.871 279.835 191.195 280.273 190.8Z" fill="#6055C9"/>
<path d="M277.596 202.731C272.534 202.731 268.417 198.614 268.417 193.552C268.417 188.491 272.534 184.374 277.596 184.374C282.657 184.374 286.774 188.491 286.774 193.552C286.773 198.614 282.656 202.731 277.596 202.731ZM277.596 185.375C273.086 185.375 269.417 189.044 269.417 193.553C269.417 198.063 273.086 201.732 277.596 201.732C282.105 201.732 285.774 198.063 285.774 193.553C285.773 189.044 282.104 185.375 277.596 185.375ZM277.595 200.116C275.914 200.116 274.233 199.476 272.952 198.196C271.711 196.956 271.028 195.306 271.028 193.552C271.028 191.798 271.711 190.149 272.952 188.909C275.515 186.347 279.68 186.35 282.238 188.909C283.479 190.149 284.162 191.799 284.162 193.552C284.162 195.305 283.479 196.955 282.238 198.196C280.958 199.477 279.276 200.116 277.595 200.116ZM277.595 187.988C276.17 187.988 274.744 188.531 273.659 189.616C272.607 190.668 272.028 192.065 272.028 193.552C272.028 195.039 272.607 196.437 273.659 197.489C275.828 199.658 279.36 199.66 281.531 197.489C282.583 196.437 283.162 195.04 283.162 193.552C283.162 192.064 282.583 190.667 281.531 189.616C280.446 188.531 279.02 187.988 277.595 187.988Z" fill="#6F6AD3"/>
<path d="M278.641 189.412C278.764 189.989 278.396 190.557 277.818 190.68C277.241 190.803 276.673 190.435 276.55 189.857C276.427 189.279 276.796 188.712 277.373 188.589C277.95 188.466 278.518 188.835 278.641 189.412Z" fill="#6055C9"/>
<path d="M278.641 197.249C278.764 197.826 278.396 198.394 277.818 198.517C277.241 198.64 276.673 198.272 276.55 197.694C276.427 197.116 276.796 196.549 277.373 196.426C277.95 196.303 278.518 196.671 278.641 197.249Z" fill="#6055C9"/>
<path d="M277.596 195.597C276.469 195.597 275.552 194.68 275.552 193.553C275.552 192.426 276.469 191.509 277.596 191.509C278.723 191.509 279.639 192.426 279.639 193.553C279.639 194.68 278.723 195.597 277.596 195.597ZM277.596 192.509C277.021 192.509 276.552 192.978 276.552 193.553C276.552 194.128 277.021 194.597 277.596 194.597C278.171 194.597 278.639 194.128 278.639 193.553C278.639 192.978 278.171 192.509 277.596 192.509Z" fill="#6F6AD3"/>
<path d="M335.639 190.577C336.2 190.759 336.508 191.362 336.325 191.923C336.143 192.484 335.54 192.792 334.979 192.61C334.418 192.428 334.11 191.825 334.292 191.264C334.474 190.703 335.077 190.395 335.639 190.577Z" fill="#6055C9"/>
<path d="M342.426 194.496C342.987 194.678 343.295 195.281 343.113 195.842C342.931 196.403 342.328 196.711 341.767 196.528C341.205 196.346 340.898 195.743 341.08 195.182C341.262 194.621 341.864 194.313 342.426 194.496Z" fill="#6055C9"/>
<path d="M334.594 194.718C335.032 194.323 335.708 194.358 336.103 194.796C336.498 195.235 336.463 195.91 336.024 196.305C335.585 196.7 334.91 196.665 334.515 196.226C334.12 195.789 334.155 195.113 334.594 194.718Z" fill="#6055C9"/>
<path d="M341.38 190.8C341.818 190.405 342.494 190.44 342.889 190.878C343.284 191.317 343.249 191.992 342.811 192.387C342.373 192.782 341.697 192.747 341.302 192.308C340.907 191.871 340.942 191.195 341.38 190.8Z" fill="#6055C9"/>
<path d="M338.702 202.731C333.642 202.731 329.524 198.614 329.524 193.552C329.524 188.491 333.641 184.374 338.702 184.374C343.764 184.374 347.881 188.491 347.881 193.552C347.881 198.614 343.764 202.731 338.702 202.731ZM338.702 185.375C334.193 185.375 330.524 189.044 330.524 193.553C330.524 198.063 334.193 201.732 338.702 201.732C343.212 201.732 346.881 198.063 346.881 193.553C346.881 189.044 343.212 185.375 338.702 185.375Z" fill="#6F6AD3"/>
<path d="M338.702 200.116C337.02 200.116 335.339 199.476 334.059 198.196C331.498 195.635 331.498 191.469 334.059 188.909C336.619 186.348 340.786 186.348 343.346 188.909C345.907 191.469 345.907 195.636 343.346 198.196C342.065 199.477 340.384 200.116 338.702 200.116ZM338.702 187.988C337.276 187.988 335.85 188.531 334.766 189.616C332.595 191.787 332.595 195.318 334.766 197.489C336.936 199.659 340.469 199.659 342.639 197.489C344.81 195.318 344.81 191.787 342.639 189.616C341.554 188.531 340.128 187.988 338.702 187.988Z" fill="#6F6AD3"/>
<path d="M339.748 189.412C339.871 189.989 339.502 190.557 338.925 190.68C338.348 190.803 337.78 190.435 337.657 189.857C337.534 189.28 337.902 188.712 338.48 188.589C339.057 188.466 339.625 188.835 339.748 189.412Z" fill="#6055C9"/>
<path d="M339.748 197.249C339.871 197.826 339.502 198.394 338.925 198.517C338.348 198.64 337.78 198.272 337.657 197.694C337.534 197.117 337.902 196.549 338.48 196.426C339.057 196.303 339.625 196.671 339.748 197.249Z" fill="#6055C9"/>
<path d="M338.702 195.597C337.575 195.597 336.658 194.68 336.658 193.553C336.658 192.426 337.575 191.509 338.702 191.509C339.829 191.509 340.746 192.426 340.746 193.553C340.746 194.68 339.829 195.597 338.702 195.597ZM338.702 192.509C338.127 192.509 337.658 192.978 337.658 193.553C337.658 194.128 338.127 194.597 338.702 194.597C339.277 194.597 339.746 194.128 339.746 193.553C339.746 192.978 339.277 192.509 338.702 192.509Z" fill="#6F6AD3"/>
<path d="M357.875 190.577C358.436 190.759 358.744 191.362 358.562 191.923C358.38 192.484 357.777 192.792 357.216 192.61C356.655 192.428 356.347 191.825 356.529 191.264C356.711 190.702 357.314 190.395 357.875 190.577Z" fill="#6055C9"/>
<path d="M364.662 194.496C365.223 194.678 365.531 195.281 365.349 195.842C365.167 196.403 364.564 196.711 364.003 196.528C363.442 196.346 363.134 195.743 363.316 195.182C363.498 194.621 364.101 194.313 364.662 194.496Z" fill="#6055C9"/>
<path d="M356.83 194.718C357.268 194.323 357.944 194.358 358.339 194.796C358.734 195.235 358.699 195.91 358.26 196.305C357.821 196.7 357.146 196.665 356.751 196.226C356.357 195.789 356.392 195.113 356.83 194.718Z" fill="#6055C9"/>
<path d="M363.617 190.8C364.056 190.405 364.731 190.44 365.126 190.878C365.521 191.317 365.486 191.992 365.047 192.387C364.608 192.782 363.933 192.747 363.538 192.308C363.143 191.871 363.179 191.195 363.617 190.8Z" fill="#6055C9"/>
<path d="M360.939 202.731C355.877 202.731 351.76 198.614 351.76 193.552C351.76 188.491 355.877 184.374 360.939 184.374C366 184.374 370.117 188.491 370.117 193.552C370.117 198.614 366 202.731 360.939 202.731ZM360.939 185.375C356.429 185.375 352.76 189.044 352.76 193.553C352.76 198.063 356.429 201.732 360.939 201.732C365.448 201.732 369.117 198.063 369.117 193.553C369.117 189.044 365.448 185.375 360.939 185.375Z" fill="#6F6AD3"/>
<path d="M360.939 200.116C359.256 200.116 357.576 199.476 356.295 198.196C353.734 195.635 353.734 191.469 356.295 188.909C358.855 186.348 363.022 186.348 365.582 188.909C368.143 191.469 368.143 195.636 365.582 198.196C364.303 199.477 362.62 200.116 360.939 200.116ZM360.939 187.988C359.513 187.988 358.087 188.531 357.002 189.616C354.831 191.787 354.831 195.318 357.002 197.489C359.173 199.66 362.704 199.66 364.875 197.489C367.046 195.318 367.046 191.787 364.875 189.616C363.79 188.531 362.364 187.988 360.939 187.988Z" fill="#6F6AD3"/>
<path d="M361.984 189.412C362.107 189.989 361.739 190.557 361.161 190.68C360.584 190.803 360.016 190.435 359.893 189.857C359.77 189.28 360.138 188.712 360.716 188.589C361.294 188.466 361.861 188.835 361.984 189.412Z" fill="#6055C9"/>
<path d="M361.984 197.249C362.107 197.826 361.739 198.394 361.161 198.517C360.584 198.64 360.016 198.272 359.893 197.694C359.77 197.117 360.138 196.549 360.716 196.426C361.294 196.303 361.861 196.671 361.984 197.249Z" fill="#6055C9"/>
<path d="M360.939 195.597C359.812 195.597 358.895 194.68 358.895 193.553C358.895 192.426 359.812 191.509 360.939 191.509C362.066 191.509 362.982 192.426 362.982 193.553C362.982 194.68 362.066 195.597 360.939 195.597ZM360.939 192.509C360.364 192.509 359.895 192.978 359.895 193.553C359.895 194.128 360.364 194.597 360.939 194.597C361.514 194.597 361.982 194.128 361.982 193.553C361.982 192.978 361.515 192.509 360.939 192.509Z" fill="#6F6AD3"/>
<path d="M338.702 202.731C333.642 202.731 329.524 198.614 329.524 193.552C329.524 188.491 333.641 184.374 338.702 184.374C343.764 184.374 347.881 188.491 347.881 193.552C347.881 198.614 343.764 202.731 338.702 202.731ZM338.702 185.375C334.193 185.375 330.524 189.044 330.524 193.553C330.524 198.063 334.193 201.732 338.702 201.732C343.212 201.732 346.881 198.063 346.881 193.553C346.881 189.044 343.212 185.375 338.702 185.375Z" fill="#6F6AD3"/>
<path d="M328.688 195.788H295.448C295.172 195.788 294.948 195.564 294.948 195.288V188.098C294.948 187.822 295.172 187.598 295.448 187.598H330.132C330.315 187.598 330.482 187.698 330.57 187.858C330.658 188.018 330.651 188.213 330.553 188.368C329.561 189.921 329.036 191.714 329.036 193.554C329.036 194.096 329.085 194.652 329.181 195.204C329.205 195.35 329.165 195.498 329.071 195.611C328.975 195.723 328.835 195.788 328.688 195.788ZM295.947 194.788H328.109C328.06 194.374 328.036 193.96 328.036 193.553C328.036 191.82 328.458 190.123 329.262 188.598H295.948V194.788H295.947Z" fill="#6F6AD3"/>
<path d="M374.543 195.788H370.953C370.806 195.788 370.666 195.723 370.57 195.61C370.475 195.497 370.435 195.348 370.46 195.203C370.556 194.65 370.605 194.095 370.605 193.553C370.605 191.712 370.081 189.919 369.089 188.367C368.991 188.213 368.984 188.017 369.072 187.857C369.16 187.697 369.328 187.597 369.51 187.597H374.542C374.818 187.597 375.042 187.821 375.042 188.097V195.287C375.043 195.565 374.819 195.788 374.543 195.788ZM371.531 194.788H374.043V188.598H370.38C371.184 190.123 371.605 191.819 371.605 193.553C371.604 193.96 371.58 194.374 371.531 194.788Z" fill="#6F6AD3"/>
<path d="M350.925 195.788H348.717C348.569 195.788 348.43 195.723 348.334 195.61C348.239 195.497 348.199 195.348 348.224 195.203C348.32 194.65 348.369 194.095 348.369 193.553C348.369 191.714 347.845 189.92 346.853 188.367C346.755 188.214 346.749 188.018 346.836 187.858C346.924 187.698 347.092 187.598 347.275 187.598H352.368C352.551 187.598 352.719 187.698 352.807 187.858C352.895 188.018 352.888 188.213 352.79 188.367C351.799 189.921 351.274 191.715 351.274 193.553C351.274 194.095 351.323 194.651 351.419 195.203C351.443 195.349 351.403 195.497 351.309 195.61C351.212 195.723 351.072 195.788 350.925 195.788ZM349.295 194.788H350.347C350.298 194.374 350.274 193.96 350.274 193.553C350.274 191.82 350.696 190.124 351.5 188.598H348.144C348.948 190.124 349.37 191.82 349.37 193.553C349.368 193.96 349.344 194.374 349.295 194.788Z" fill="#6F6AD3"/>
<path d="M360.939 202.731C355.877 202.731 351.76 198.614 351.76 193.552C351.76 188.491 355.877 184.374 360.939 184.374C366 184.374 370.117 188.491 370.117 193.552C370.117 198.614 366 202.731 360.939 202.731ZM360.939 185.375C356.429 185.375 352.76 189.044 352.76 193.553C352.76 198.063 356.429 201.732 360.939 201.732C365.448 201.732 369.117 198.063 369.117 193.553C369.117 189.044 365.448 185.375 360.939 185.375Z" fill="#6F6AD3"/>
<path d="M378.758 188.598H369.511C369.34 188.598 369.182 188.511 369.089 188.368C367.298 185.562 364.251 183.888 360.94 183.888C357.628 183.888 354.582 185.563 352.789 188.368C352.697 188.512 352.539 188.598 352.368 188.598H347.275C347.104 188.598 346.946 188.511 346.854 188.368C345.061 185.562 342.014 183.888 338.703 183.888C335.392 183.888 332.345 185.563 330.554 188.368C330.461 188.512 330.303 188.598 330.132 188.598H297.432C297.156 188.598 296.932 188.374 296.932 188.098V154.382H283.795C283.519 154.382 283.295 154.158 283.295 153.882V149.915C283.295 149.639 283.519 149.415 283.795 149.415H301.896C302.172 149.415 302.396 149.639 302.396 149.915V155.862H378.759C379.035 155.862 379.259 156.086 379.259 156.362V188.099C379.258 188.374 379.034 188.598 378.758 188.598ZM369.78 187.598H378.257V156.861H301.894C301.618 156.861 301.394 156.637 301.394 156.361V150.414H284.293V153.381H297.43C297.706 153.381 297.93 153.605 297.93 153.881V187.597H329.861C331.854 184.642 335.139 182.886 338.702 182.886C342.265 182.886 345.55 184.642 347.544 187.597H352.098C354.092 184.642 357.377 182.886 360.94 182.886C364.502 182.887 367.787 184.643 369.78 187.598Z" fill="#6F6AD3"/>
<path d="M304.993 177.379H302.576C302.3 177.379 302.076 177.154 302.076 176.878V159.026C302.076 158.75 302.3 158.526 302.576 158.526H304.993C305.269 158.526 305.493 158.75 305.493 159.026V176.878C305.493 177.154 305.27 177.379 304.993 177.379ZM303.076 176.378H304.493V159.526H303.076V176.378Z" fill="#6F6AD3"/>
<path d="M310.944 177.379H308.526C308.25 177.379 308.026 177.154 308.026 176.878V159.026C308.026 158.75 308.25 158.526 308.526 158.526H310.944C311.22 158.526 311.444 158.75 311.444 159.026V176.878C311.444 177.154 311.221 177.379 310.944 177.379ZM309.026 176.378H310.444V159.526H309.026V176.378Z" fill="#6F6AD3"/>
<path d="M316.895 177.379H314.477C314.201 177.379 313.977 177.154 313.977 176.878V159.026C313.977 158.75 314.201 158.526 314.477 158.526H316.895C317.171 158.526 317.395 158.75 317.395 159.026V176.878C317.395 177.154 317.172 177.379 316.895 177.379ZM314.977 176.378H316.395V159.526H314.977V176.378Z" fill="#6F6AD3"/>
<path d="M322.846 177.379H320.429C320.153 177.379 319.929 177.154 319.929 176.878V159.026C319.929 158.75 320.153 158.526 320.429 158.526H322.846C323.122 158.526 323.346 158.75 323.346 159.026V176.878C323.346 177.154 323.122 177.379 322.846 177.379ZM320.929 176.378H322.346V159.526H320.929V176.378Z" fill="#6F6AD3"/>
<path d="M328.797 177.379H326.379C326.103 177.379 325.879 177.154 325.879 176.878V159.026C325.879 158.75 326.103 158.526 326.379 158.526H328.797C329.073 158.526 329.297 158.75 329.297 159.026V176.878C329.297 177.154 329.073 177.379 328.797 177.379ZM326.879 176.378H328.297V159.526H326.879V176.378Z" fill="#6F6AD3"/>
<path d="M334.747 177.379H332.33C332.054 177.379 331.83 177.154 331.83 176.878V159.026C331.83 158.75 332.054 158.526 332.33 158.526H334.747C335.023 158.526 335.247 158.75 335.247 159.026V176.878C335.247 177.154 335.023 177.379 334.747 177.379ZM332.83 176.378H334.247V159.526H332.83V176.378Z" fill="#6F6AD3"/>
<path d="M340.698 177.379H338.28C338.004 177.379 337.78 177.154 337.78 176.878V159.026C337.78 158.75 338.004 158.526 338.28 158.526H340.698C340.974 158.526 341.198 158.75 341.198 159.026V176.878C341.198 177.154 340.975 177.379 340.698 177.379ZM338.78 176.378H340.198V159.526H338.78V176.378Z" fill="#6F6AD3"/>
<path d="M346.648 177.379H344.231C343.955 177.379 343.731 177.154 343.731 176.878V159.026C343.731 158.75 343.955 158.526 344.231 158.526H346.648C346.924 158.526 347.148 158.75 347.148 159.026V176.878C347.148 177.154 346.925 177.379 346.648 177.379ZM344.731 176.378H346.148V159.526H344.731V176.378Z" fill="#6F6AD3"/>
<path d="M352.6 177.379H350.182C349.906 177.379 349.682 177.154 349.682 176.878V159.026C349.682 158.75 349.906 158.526 350.182 158.526H352.6C352.876 158.526 353.1 158.75 353.1 159.026V176.878C353.1 177.154 352.876 177.379 352.6 177.379ZM350.682 176.378H352.1V159.526H350.682V176.378Z" fill="#6F6AD3"/>
<path d="M358.55 177.379H356.133C355.857 177.379 355.633 177.154 355.633 176.878V159.026C355.633 158.75 355.857 158.526 356.133 158.526H358.55C358.826 158.526 359.05 158.75 359.05 159.026V176.878C359.05 177.154 358.826 177.379 358.55 177.379ZM356.633 176.378H358.05V159.526H356.633V176.378Z" fill="#6F6AD3"/>
<path d="M364.501 177.379H362.083C361.807 177.379 361.583 177.154 361.583 176.878V159.026C361.583 158.75 361.807 158.526 362.083 158.526H364.501C364.777 158.526 365.001 158.75 365.001 159.026V176.878C365.001 177.154 364.777 177.379 364.501 177.379ZM362.583 176.378H364.001V159.526H362.583V176.378Z" fill="#6F6AD3"/>
<path d="M370.452 177.379H368.034C367.758 177.379 367.534 177.154 367.534 176.878V159.026C367.534 158.75 367.758 158.526 368.034 158.526H370.452C370.728 158.526 370.952 158.75 370.952 159.026V176.878C370.952 177.154 370.728 177.379 370.452 177.379ZM368.534 176.378H369.952V159.526H368.534V176.378Z" fill="#6F6AD3"/>
<path d="M376.402 177.379H373.985C373.709 177.379 373.485 177.154 373.485 176.878V159.026C373.485 158.75 373.709 158.526 373.985 158.526H376.402C376.678 158.526 376.902 158.75 376.902 159.026V176.878C376.902 177.154 376.679 177.379 376.402 177.379ZM374.485 176.378H375.902V159.526H374.485V176.378Z" fill="#6F6AD3"/>
<path d="M328.536 191.82H297.621C297.345 191.82 297.121 191.596 297.121 191.32C297.121 191.044 297.345 190.82 297.621 190.82H328.536C328.812 190.82 329.036 191.044 329.036 191.32C329.036 191.596 328.813 191.82 328.536 191.82Z" fill="#6F6AD3"/>
<path d="M265.447 193.49H254.536C254.26 193.49 254.036 193.266 254.036 192.99C254.036 192.714 254.26 192.49 254.536 192.49H265.447C265.723 192.49 265.947 192.714 265.947 192.99C265.947 193.267 265.724 193.49 265.447 193.49Z" fill="#6F6AD3"/>
<path d="M297.341 152.652H283.912C283.636 152.652 283.412 152.428 283.412 152.152C283.412 151.876 283.636 151.652 283.912 151.652H297.341C297.617 151.652 297.841 151.876 297.841 152.152C297.841 152.429 297.617 152.652 297.341 152.652Z" fill="#6F6AD3"/>
<path d="M270.748 164.217C270.643 164.217 270.536 164.184 270.446 164.115C270.225 163.948 270.182 163.635 270.349 163.414L271.903 161.362C272.069 161.142 272.382 161.099 272.603 161.265C272.823 161.432 272.867 161.745 272.7 161.966L271.146 164.019C271.048 164.148 270.898 164.217 270.748 164.217Z" fill="#6F6AD3"/>
<path d="M264.468 172.516C264.363 172.516 264.256 172.483 264.166 172.415C263.946 172.248 263.902 171.935 264.069 171.714L267.942 166.596C268.108 166.375 268.423 166.333 268.642 166.499C268.862 166.666 268.906 166.979 268.739 167.2L264.866 172.318C264.769 172.448 264.619 172.516 264.468 172.516Z" fill="#6F6AD3"/>
<path d="M82.153 58.464H64.934C63.688 58.464 62.678 57.454 62.678 56.208C62.678 54.962 63.688 53.952 64.934 53.952H70.002C71.328 53.952 72.486 52.951 72.572 51.628C72.666 50.178 71.518 48.973 70.088 48.973H27.723C26.397 48.973 25.239 49.974 25.153 51.297C25.059 52.747 26.207 53.952 27.637 53.952H44.127C45.373 53.952 46.383 54.962 46.383 56.208C46.383 57.454 45.373 58.464 44.127 58.464H19.025C17.65 58.464 16.535 59.579 16.535 60.954C16.535 62.329 17.65 63.444 19.025 63.444H43.324C44.57 63.444 45.58 64.454 45.58 65.7C45.58 66.946 44.57 67.956 43.324 67.956H27.723C26.397 67.956 25.239 68.957 25.153 70.28C25.059 71.73 26.207 72.935 27.637 72.935H70.001C71.327 72.935 72.485 71.934 72.571 70.611C72.665 69.161 71.517 67.956 70.087 67.956H67.819C66.573 67.956 65.563 66.946 65.563 65.7C65.563 64.454 66.573 63.444 67.819 63.444H82.153C83.528 63.444 84.643 62.329 84.643 60.954C84.643 59.579 83.528 58.464 82.153 58.464Z" fill="#EBEBFC"/>
<path d="M321.234 16.906H304.644C303.398 16.906 302.388 15.896 302.388 14.65C302.388 13.404 303.398 12.394 304.644 12.394H309.083C310.409 12.394 311.567 11.393 311.653 10.07C311.747 8.62 310.599 7.414 309.169 7.414H252.64C251.314 7.414 250.156 8.415 250.07 9.738C249.976 11.188 251.125 12.393 252.554 12.393H269.044C270.29 12.393 271.3 13.403 271.3 14.649C271.3 15.895 270.29 16.905 269.044 16.905H243.941C242.566 16.905 241.451 18.02 241.451 19.395C241.451 20.77 242.566 21.885 243.941 21.885H268.239C269.485 21.885 270.495 22.895 270.495 24.141C270.495 25.387 269.485 26.397 268.239 26.397H252.639C251.313 26.397 250.155 27.398 250.069 28.721C249.975 30.171 251.124 31.376 252.553 31.376H309.082C310.408 31.376 311.566 30.375 311.652 29.052C311.746 27.602 310.598 26.397 309.168 26.397H296.824C295.578 26.397 294.568 25.387 294.568 24.141C294.568 22.895 295.578 21.885 296.824 21.885H321.234C322.609 21.885 323.724 20.77 323.724 19.395C323.724 18.021 322.609 16.906 321.234 16.906Z" fill="#EBEBFC"/>
<path d="M243.204 31.378H237.604C236.262 31.378 235.174 30.29 235.174 28.948C235.174 27.606 236.262 26.518 237.604 26.518H243.204C244.546 26.518 245.634 27.606 245.634 28.948C245.634 30.29 244.546 31.378 243.204 31.378Z" fill="#EBEBFC"/>
<path d="M323.669 12.274H318.069C316.727 12.274 315.639 11.186 315.639 9.844C315.639 8.502 316.727 7.414 318.069 7.414H323.669C325.011 7.414 326.099 8.502 326.099 9.844C326.099 11.187 325.011 12.274 323.669 12.274Z" fill="#EBEBFC"/>
<path d="M281.206 66.573H304.476C305.744 66.573 306.773 65.545 306.773 64.276C306.773 63.008 305.745 61.979 304.476 61.979H293.575C292.225 61.979 291.047 60.96 290.96 59.614C290.864 58.138 292.033 56.911 293.489 56.911H351.028C352.378 56.911 353.556 57.929 353.643 59.276C353.739 60.752 352.57 61.979 351.114 61.979H334.329C333.061 61.979 332.032 63.007 332.032 64.276C332.032 65.544 333.06 66.573 334.329 66.573H344.445C345.845 66.573 346.979 67.708 346.979 69.107C346.979 70.506 345.844 71.641 344.445 71.641H335.148C333.88 71.641 332.851 72.669 332.851 73.938C332.851 75.206 333.879 76.235 335.148 76.235H361.31C362.66 76.235 363.838 77.254 363.926 78.601C364.021 80.077 362.853 81.304 361.397 81.304H293.575C292.225 81.304 291.047 80.286 290.96 78.939C290.864 77.463 292.033 76.236 293.489 76.236H295.798C297.066 76.236 298.095 75.208 298.095 73.939C298.095 72.671 297.067 71.642 295.798 71.642H281.207C279.807 71.642 278.673 70.507 278.673 69.108C278.672 67.708 279.806 66.573 281.206 66.573Z" fill="#EBEBFC"/>
<path d="M352.873 71.463H358.473C359.815 71.463 360.903 70.375 360.903 69.033C360.903 67.691 359.815 66.603 358.473 66.603H352.873C351.531 66.603 350.443 67.691 350.443 69.033C350.443 70.375 351.531 71.463 352.873 71.463Z" fill="#EBEBFC"/>
</svg>
